<svg width="156" height="61" viewBox="0 0 156 61" fill="none" xmlns="http://www.w3.org/2000/svg">
<path d="M8.08837 34.8945C-2.45786 32.9576 26.6539 13.0612 27.5737 12.4348C27.5751 12.4339 27.5716 12.4362 27.5777 12.432C27.59 12.4233 27.6013 12.4148 27.6131 12.4055L27.6367 12.3864L36.4915 5.15785C36.7751 4.92632 36.9169 4.81056 36.9905 4.69464C37.1969 4.36973 37.1594 3.94669 36.8989 3.66325C36.806 3.56213 36.646 3.47317 36.326 3.29525C35.5519 2.86484 35.1649 2.64963 35.0542 2.49662C34.7359 2.0566 34.9059 1.43501 35.404 1.21835C35.5771 1.14301 36.0198 1.15483 36.9052 1.17847L44.5099 1.38151C44.8423 1.39039 45.0085 1.39483 45.1394 1.44289C45.4042 1.54009 45.6036 1.76228 45.6717 2.03603C45.7053 2.17137 45.6918 2.33708 45.6647 2.66847L45.6647 2.66851L45.0418 10.3017C44.9739 11.1341 44.9399 11.5503 44.8201 11.7321C44.5738 12.1058 44.0799 12.2246 43.6905 12.0038C43.5011 11.8964 43.2816 11.5412 42.8425 10.8309L42.4808 10.2458C42.3101 9.96969 42.2248 9.83165 42.1184 9.74308C41.9045 9.56491 41.6126 9.50252 41.3446 9.57769C41.2113 9.61505 41.0836 9.70171 40.8281 9.87501C35.5919 13.4268 12.1386 29.6261 24.5459 26.5649C38.4635 23.131 51.0063 22.7831 51.0289 32.5628C51.0674 49.2054 20.4713 55.2974 11.9357 56.6731C11.3945 56.7603 11.1239 56.8039 10.9755 56.8985C10.6421 57.1112 10.5017 57.5042 10.6247 57.88C10.6794 58.0473 10.8624 58.254 11.2282 58.6675C11.6769 59.1745 11.9012 59.428 11.9535 59.6182C12.0697 60.0403 11.8465 60.4816 11.4376 60.6381C11.2534 60.7086 10.9163 60.6781 10.242 60.6171L2.34906 59.9028L2.34902 59.9028C2.01672 59.8728 1.85057 59.8577 1.7227 59.8012C1.46405 59.6869 1.27913 59.4515 1.22933 59.1731C1.20471 59.0355 1.22946 58.8705 1.27894 58.5405L2.35606 51.358C2.44774 50.7466 2.49358 50.441 2.60497 50.2792C2.83281 49.9482 3.26118 49.8219 3.63214 49.9762C3.81352 50.0517 4.01789 50.2836 4.42663 50.7473L5.58896 52.066C5.70325 52.1957 5.7604 52.2605 5.82684 52.3113C5.95869 52.412 6.12286 52.4735 6.28843 52.4841C6.37186 52.4895 6.44968 52.4792 6.60531 52.4586L6.60537 52.4586C11.8179 51.7681 48.9399 46.4137 41.8921 34.8163C36.2345 25.5064 18.8034 36.8623 8.08837 34.8945Z" fill="#121654"/>
<path d="M35.8857 1.05497C36.1314 1.05142 36.4665 1.06034 36.9082 1.07213L44.5131 1.27525L44.9087 1.29191C45.0152 1.30084 45.1006 1.31524 45.1764 1.34305L45.2839 1.39066C45.5276 1.51596 45.7076 1.74109 45.7746 2.01062L45.7944 2.13557C45.8047 2.2677 45.7906 2.43106 45.7713 2.66785L45.7713 2.67762L45.6648 2.6681L45.7703 2.67762L45.1473 10.3099C45.1135 10.7245 45.0882 11.0405 45.0558 11.275C45.032 11.4472 45.0033 11.5874 44.9591 11.6942L44.9086 11.791C44.6488 12.1847 44.1446 12.3266 43.7219 12.1384L43.6378 12.0966C43.5199 12.0297 43.4056 11.8943 43.2726 11.7039C43.2049 11.607 43.1291 11.4915 43.0433 11.3558L42.7522 10.8868L42.3905 10.3017C42.2593 10.0894 42.1842 9.96941 42.1171 9.89117L42.0505 9.82491C41.8869 9.68865 41.6707 9.62987 41.4622 9.66123L41.3734 9.67999C41.3171 9.69578 41.2608 9.72171 41.1861 9.76636L40.8877 9.96334C38.2693 11.7394 31.1007 16.6742 26.1383 20.7817C24.8979 21.8083 23.7969 22.7819 22.9398 23.6406C22.0799 24.5022 21.4747 25.2394 21.2153 25.7931C21.0851 26.0709 21.0514 26.2839 21.0947 26.4369C21.1354 26.5805 21.2532 26.698 21.4988 26.7699C21.7476 26.8427 22.1131 26.8633 22.6161 26.8152C23.1176 26.7672 23.748 26.6518 24.5206 26.4612L25.8216 26.1486C32.3039 24.6317 38.4198 23.8384 43.0132 24.5034C45.4638 24.8582 47.4922 25.63 48.9104 26.939C50.3319 28.251 51.1296 30.0929 51.1353 32.5628C51.145 36.7594 49.2223 40.2864 46.2117 43.2333C43.2025 46.179 39.1016 48.5503 34.7401 50.4406C26.5621 53.9848 17.4436 55.8486 12.8169 56.6348L11.9529 56.7784C11.6811 56.8222 11.4814 56.8544 11.3311 56.8873C11.2553 56.9039 11.1951 56.9199 11.1467 56.9365L11.0325 56.9886C10.7403 57.1752 10.6181 57.5172 10.7259 57.8467L10.7809 57.9598C10.8079 58.0035 10.8451 58.0546 10.8935 58.1158C10.9896 58.2372 11.1242 58.3898 11.3077 58.5973L11.6034 58.9335C11.6892 59.0325 11.7623 59.119 11.8228 59.1957C11.9421 59.347 12.0238 59.4724 12.0561 59.5897L12.0759 59.6795C12.1489 60.096 11.9384 60.5123 11.5597 60.7002L11.4758 60.7375C11.362 60.7811 11.2124 60.79 11.0198 60.7835C10.9222 60.7802 10.8094 60.7723 10.6789 60.7619L10.2326 60.7228L2.34906 60.0087L2.34906 60.0096L2.33929 60.0096L2.33929 60.0087C2.09698 59.9867 1.93048 59.9729 1.80007 59.9396L1.67986 59.8989C1.42541 59.7864 1.23452 59.5693 1.1531 59.3073L1.12451 59.1921C1.09604 59.033 1.12559 58.8462 1.17375 58.525L2.25089 51.3419L2.31343 50.9374C2.33257 50.819 2.35051 50.7162 2.36936 50.6277C2.40667 50.4525 2.44957 50.3183 2.51783 50.2192L2.62397 50.09C2.89364 49.816 3.30826 49.7258 3.67329 49.8776L3.7564 49.9204C3.83985 49.9711 3.92471 50.0462 4.0196 50.1415C4.14725 50.2697 4.30288 50.4468 4.50619 50.6775L5.66843 51.9961L5.80256 52.1452C5.83659 52.181 5.8635 52.2055 5.89162 52.227L5.98258 52.2864C6.07849 52.3391 6.18679 52.3714 6.29529 52.3784L6.41052 52.3752C6.45571 52.3711 6.5119 52.3638 6.59113 52.3533L7.92371 52.1686C11.8171 51.609 20.9034 50.1387 28.8146 47.6261C33.3376 46.1896 37.4634 44.4164 40.0172 42.2867C41.2932 41.2226 42.1684 40.0764 42.5112 38.8474C42.8315 37.6987 42.6902 36.4648 41.9557 35.1377L41.8018 34.8715C40.4087 32.5791 38.2922 31.5558 35.7192 31.283C33.1406 31.0096 30.1109 31.4913 26.9098 32.2057C23.7184 32.9179 20.3433 33.8655 17.1153 34.5076C14.0852 35.1104 11.1584 35.4503 8.58049 35.0821L8.06956 34.9993C6.73548 34.7543 5.98642 34.2165 5.7583 33.4284C5.53391 32.6532 5.82972 31.681 6.46271 30.6026C7.73288 28.4387 10.4239 25.7403 13.461 23.0932C19.5154 17.8163 26.9907 12.7028 27.5075 12.3507C27.5084 12.35 27.51 12.349 27.5104 12.3488L27.5123 12.3478C27.5133 12.3471 27.5147 12.346 27.5162 12.3449L27.5474 12.3223L27.5699 12.3037L36.4243 5.07522L36.7488 4.80396C36.8264 4.73388 36.8717 4.68341 36.9008 4.63759L36.9581 4.52711C37.0537 4.30036 37.0309 4.04028 36.897 3.83389L36.8206 3.73543C36.7838 3.69543 36.7303 3.65352 36.6415 3.59815L36.2748 3.38806C35.8887 3.17334 35.5957 3.01045 35.386 2.8823C35.2811 2.8182 35.1948 2.76152 35.1268 2.71005C35.0933 2.68471 35.0624 2.66013 35.0358 2.63506L34.9682 2.55905C34.6101 2.06403 34.8012 1.36439 35.3614 1.12063L35.459 1.09013C35.4946 1.08214 35.5336 1.07607 35.5752 1.07131C35.6598 1.06163 35.7629 1.05674 35.8857 1.05497ZM27.5621 12.3291C27.5596 12.3294 27.5573 12.3298 27.5553 12.3301C27.5659 12.3289 27.5989 12.331 27.6207 12.3388C27.6316 12.3471 27.6407 12.3605 27.6491 12.3748L27.6559 12.3699C27.651 12.364 27.6461 12.3568 27.6422 12.3534C27.6363 12.3487 27.6248 12.3408 27.6188 12.3378C27.6043 12.3311 27.5909 12.3298 27.5826 12.3291C27.5741 12.3284 27.5667 12.3286 27.5621 12.3291ZM27.5026 12.3556C27.5017 12.3565 27.4999 12.3584 27.4987 12.3595C27.4977 12.3606 27.4957 12.3632 27.4938 12.3654C27.4949 12.3641 27.496 12.3633 27.4968 12.3625C27.4981 12.3611 27.4988 12.3594 27.4997 12.3586C27.5027 12.3556 27.5058 12.3532 27.5065 12.3527L27.5075 12.3517L27.5026 12.3556ZM27.5231 12.3409C27.5216 12.3417 27.5207 12.3426 27.5201 12.3429L27.5211 12.3429C27.5216 12.3426 27.5227 12.3417 27.524 12.3409C27.5248 12.3405 27.5263 12.3398 27.5279 12.339L27.5289 12.338L27.5231 12.3409ZM27.5504 12.3311L27.5484 12.3311C27.5498 12.3308 27.5511 12.3304 27.5523 12.3301L27.5504 12.3311Z" stroke="black" stroke-opacity="0.5" stroke-width="0.212603" stroke-linejoin="round"/>
<path d="M58.1203 24.6278C57.5717 24.6276 57.1207 24.5879 56.7672 24.5086C56.4137 24.4353 56.1394 24.3317 55.9444 24.1975C55.7494 24.0634 55.6123 23.9109 55.5331 23.7403C55.46 23.5635 55.4234 23.3776 55.4235 23.1825C55.4235 22.9997 55.451 22.8168 55.5059 22.634C55.5669 22.4511 55.6706 22.2622 55.8169 22.0672C55.9022 22.244 56.0424 22.4147 56.2374 22.5793C56.4324 22.7439 56.6518 22.8781 56.8955 22.9817C57.1454 23.0854 57.3892 23.1373 57.6269 23.1374C57.9439 23.1374 58.206 23.0887 58.4133 22.9913C58.6266 22.8877 58.779 22.7293 58.8705 22.516C57.8344 22.3755 57.0573 22.0888 56.5393 21.6559C56.0213 21.217 55.7624 20.7018 55.7626 20.1106C55.7626 19.7632 55.8328 19.4584 55.9731 19.1964C56.1194 18.9343 56.3115 18.7149 56.5492 18.5382C56.787 18.3554 57.0461 18.2092 57.3265 18.0996C57.6069 17.9838 57.8843 17.9016 58.1586 17.8529C58.4329 17.7981 58.6767 17.7708 58.89 17.7708C59.6641 17.771 60.2584 17.8626 60.6728 18.0456C61.0933 18.2224 61.3035 18.5364 61.3034 18.9874C61.3033 19.2495 61.2423 19.4689 61.1204 19.6457C61.0045 19.8224 60.8491 19.9565 60.654 20.0478C60.465 20.1331 60.2578 20.1757 60.0323 20.1757C59.7641 20.1756 59.502 20.0994 59.246 19.9469C58.9901 19.7884 58.8103 19.5689 58.7068 19.2885C58.4934 19.2884 58.2831 19.3615 58.0759 19.5078C57.8686 19.6479 57.7344 19.8429 57.6734 20.0928C58.484 20.2881 59.1362 20.5046 59.6298 20.7424C60.1296 20.9803 60.4922 21.2486 60.7176 21.5473C60.9431 21.846 61.0557 22.1874 61.0557 22.5714C61.0555 23.0163 60.9244 23.3912 60.6622 23.6958C60.4001 24.0005 60.0465 24.2321 59.6015 24.3904C59.1626 24.5488 58.6688 24.6279 58.1203 24.6278ZM63.5281 24.6291C63.3269 24.6291 63.1288 24.5986 62.9338 24.5376C62.7449 24.4766 62.5864 24.3699 62.4584 24.2174C62.3366 24.065 62.2757 23.8547 62.2758 23.5865C62.2758 23.5865 62.2758 23.5164 62.2758 23.3763C62.2819 23.2361 62.285 23.0563 62.2851 22.8368C62.2912 22.6174 62.2943 22.3858 62.2944 22.142C62.2945 21.8921 62.2945 21.6544 62.2946 21.4288C62.3007 21.2033 62.3038 21.0205 62.3039 20.8803C62.304 20.4658 62.2553 20.1366 62.1578 19.8928C62.0665 19.6429 61.9507 19.4478 61.8105 19.3076C62.1276 19.0456 62.475 18.9146 62.8529 18.9147C63.1943 18.9148 63.4533 19.0154 63.63 19.2166C63.8067 19.4117 63.9255 19.6799 63.9864 20.0213C64.0533 20.3626 64.0868 20.7436 64.0866 21.1641C64.0866 21.3897 64.0835 21.6457 64.0773 21.9321C64.0772 22.2125 64.0741 22.4929 64.068 22.7733C64.0618 23.0476 64.0526 23.2944 64.0403 23.5138L64.3512 23.5139C64.5646 23.1422 64.7537 22.7887 64.9183 22.4535C65.083 22.1183 65.1989 21.7892 65.266 21.4662C65.2661 21.2589 65.2448 21.0273 65.2022 20.7713C65.1657 20.5153 65.117 20.2745 65.0561 20.049C64.9952 19.8173 64.9312 19.6466 64.8642 19.5369C64.9557 19.415 65.0959 19.3175 65.2849 19.2444C65.4738 19.1714 65.6689 19.1348 65.87 19.1349C66.0285 19.1349 66.1809 19.1624 66.3271 19.2173C66.4795 19.2722 66.6044 19.3606 66.7019 19.4825C66.8055 19.6045 66.8573 19.766 66.8572 19.9671C66.8572 20.1561 66.8175 20.3572 66.7382 20.5705C66.6589 20.7777 66.5705 21.0276 66.4729 21.3202L66.4358 23.5145L66.7466 23.5145C66.8869 23.2464 67.0363 22.9417 67.1949 22.6004C67.3534 22.253 67.5028 21.8995 67.6431 21.5399C67.7895 21.1803 67.9084 20.8421 68 20.5251C68.0915 20.2021 68.1372 19.9339 68.1373 19.7206C68.1373 19.6353 68.1282 19.5591 68.1099 19.492C68.0978 19.425 68.0795 19.364 68.0551 19.3091C68.2685 19.1751 68.4788 19.0776 68.6861 19.0167C68.8933 18.9497 69.0823 18.9163 69.2529 18.9163C69.5211 18.9164 69.7131 18.9957 69.8289 19.1542C69.9446 19.3127 70.0025 19.5199 70.0024 19.7759C70.0024 19.9954 69.9535 20.2574 69.8559 20.5622C69.7644 20.8669 69.6485 21.1869 69.5083 21.5221C69.368 21.8512 69.2277 22.1681 69.0875 22.4728C68.9472 22.7715 68.8344 23.0274 68.749 23.2408L68.8768 23.7711C68.7854 23.8442 68.6513 23.9295 68.4745 24.027C68.2977 24.1244 68.0965 24.2189 67.871 24.3102C67.6515 24.4016 67.4199 24.4777 67.1761 24.5386C66.9384 24.5995 66.7098 24.63 66.4903 24.6299C66.2222 24.6298 65.9814 24.5688 65.7681 24.4469C65.5609 24.3249 65.4208 24.1085 65.3477 23.7976C65.0794 24.0596 64.799 24.2638 64.5064 24.41C64.2199 24.5562 63.8938 24.6292 63.5281 24.6291ZM72.3036 24.6314C71.9622 24.6313 71.6605 24.5428 71.3985 24.366C71.1425 24.1892 70.9445 23.9392 70.8044 23.6161C70.6643 23.293 70.5943 22.9151 70.5944 22.4824C70.5945 21.9765 70.683 21.5071 70.8599 21.0744C71.0429 20.6417 71.2929 20.2639 71.6099 19.9409C71.933 19.6179 72.311 19.3681 72.7438 19.1915C73.1766 19.0087 73.646 18.9174 74.1519 18.9176C74.2981 18.9176 74.4231 18.9237 74.5267 18.9359C74.6364 18.9421 74.7522 18.9604 74.8741 18.9909C74.9107 19.1616 74.932 19.3109 74.938 19.4389C75.0782 19.3475 75.2337 19.2774 75.4044 19.2287C75.575 19.1739 75.7335 19.1465 75.8798 19.1466C76.3248 19.1467 76.5472 19.3875 76.547 19.869C76.547 20.0275 76.5165 20.2439 76.4555 20.5181C76.4005 20.7863 76.3334 21.085 76.2541 21.4141C76.1809 21.7371 76.1137 22.0693 76.0527 22.4106C75.9977 22.7458 75.9702 23.0597 75.9702 23.3523C75.9701 23.7485 76.0645 24.0258 76.2534 24.1844C75.912 24.4829 75.5493 24.6322 75.1653 24.6321C74.8117 24.632 74.5497 24.5222 74.3791 24.3028C74.2146 24.0833 74.1324 23.7419 74.1325 23.2787L74.0411 23.233C73.8764 23.6718 73.6386 24.0161 73.3276 24.2659C73.0228 24.5096 72.6815 24.6315 72.3036 24.6314ZM73.0263 22.9676C73.264 22.9676 73.4956 22.8823 73.7212 22.7117C73.9468 22.5411 74.1358 22.3065 74.2882 22.0079C74.3127 21.7702 74.3371 21.5477 74.3615 21.3405C74.3921 21.1271 74.4287 20.9016 74.4714 20.6639C74.5202 20.4262 74.5782 20.1458 74.6453 19.8228C74.3345 19.8227 74.0389 19.8836 73.7584 20.0055C73.4841 20.1212 73.2372 20.2827 73.0177 20.4898C72.7983 20.697 72.6245 20.9347 72.4964 21.2028C72.3745 21.4649 72.3134 21.7422 72.3134 22.0348C72.3133 22.3335 72.3742 22.5651 72.496 22.7297C72.624 22.8882 72.8007 22.9675 73.0263 22.9676ZM78.4684 26.2238C78.0783 26.2237 77.8132 26.1261 77.6731 25.931C77.5329 25.7359 77.4629 25.4555 77.463 25.0898C77.463 24.9557 77.4783 24.7485 77.5089 24.4681C77.5394 24.1877 77.5761 23.8678 77.6188 23.5081C77.6677 23.1424 77.7226 22.7646 77.7837 22.3745C77.8448 21.9844 77.9028 21.6095 77.9577 21.2499C78.0187 20.8903 78.0737 20.5764 78.1225 20.3083L77.6107 19.5767C77.9338 19.3878 78.2386 19.2294 78.5251 19.1015C78.8177 18.9736 79.1103 18.9097 79.4029 18.9097C79.6589 18.9098 79.8326 18.9982 79.9239 19.175C80.0153 19.3457 80.061 19.5469 80.0609 19.7785C80.0609 19.8455 80.0578 19.9217 80.0517 20.007C80.0456 20.0863 80.0364 20.1716 80.0242 20.263L80.1157 20.3088C80.2925 19.87 80.5486 19.5287 80.8839 19.285C81.2192 19.0352 81.6032 18.9103 82.036 18.9104C82.3651 18.9105 82.6425 19.0111 82.8679 19.2123C83.0934 19.4074 83.264 19.6665 83.3797 19.9896C83.4955 20.3127 83.5533 20.6693 83.5532 21.0594C83.5531 21.4373 83.4798 21.8243 83.3335 22.2204C83.1932 22.6105 82.9767 22.9701 82.684 23.2991C82.3914 23.6282 82.0226 23.8933 81.5775 24.0943C81.1325 24.2953 80.6053 24.3958 79.9958 24.3956C79.8799 24.3956 79.7672 24.3925 79.6575 24.3864C79.5478 24.3742 79.4289 24.3619 79.3009 24.3497C79.2826 24.5569 79.2734 24.755 79.2733 24.944C79.2733 25.1268 79.2946 25.2884 79.3372 25.4286C79.3859 25.5749 79.459 25.6907 79.5566 25.7761C79.2151 26.0746 78.8524 26.2239 78.4684 26.2238ZM79.4657 23.4995C79.8619 23.4874 80.2093 23.4143 80.508 23.2803C80.8128 23.1402 81.0689 22.9604 81.2762 22.7411C81.4835 22.5156 81.639 22.2718 81.7426 22.0098C81.8463 21.7477 81.8982 21.4917 81.8983 21.2418C81.8983 20.9614 81.8435 20.7328 81.7339 20.556C81.6242 20.3793 81.4597 20.2908 81.2402 20.2908C81.0147 20.2907 80.8014 20.3608 80.6002 20.5009C80.4051 20.6349 80.2283 20.8574 80.0697 21.1682C79.9173 21.479 79.7861 21.9026 79.6763 22.439L79.4657 23.4995ZM85.4963 24.6347C85.1245 24.6346 84.8593 24.537 84.7009 24.3419C84.5425 24.1469 84.4633 23.8664 84.4634 23.5007C84.4634 23.3727 84.4818 23.1777 84.5184 22.9156C84.5551 22.6474 84.6008 22.3518 84.6558 22.0288C84.7168 21.6997 84.7809 21.3705 84.848 21.0414C84.9152 20.7123 84.9792 20.4197 85.0403 20.1637L84.565 19.4322C84.882 19.2921 85.1746 19.1733 85.4428 19.0758C85.7171 18.9723 85.961 18.9205 86.1743 18.9206C86.3328 18.9206 86.4486 18.9755 86.5217 19.0853C86.5948 19.195 86.6313 19.3352 86.6313 19.5059C86.6312 19.7009 86.5977 19.9203 86.5305 20.1641C86.4634 20.4018 86.3963 20.6273 86.3292 20.8406L86.4206 20.8864C86.6341 20.2586 86.875 19.7741 87.1433 19.4328C87.4177 19.0916 87.7225 18.921 88.0577 18.9211C88.2771 18.9211 88.4539 18.9699 88.588 19.0675C88.722 19.159 88.8195 19.2748 88.8804 19.415C88.9475 19.5491 88.981 19.6802 88.9809 19.8082C88.9809 20.0093 88.929 20.2043 88.8253 20.3933C88.7278 20.5761 88.5693 20.7284 88.3498 20.8503C88.1303 20.966 87.8408 21.0239 87.4812 21.0238C87.341 21.0238 87.2038 21.0542 87.0697 21.1151C86.9356 21.176 86.8137 21.2918 86.7039 21.4624C86.5942 21.627 86.5057 21.8616 86.4386 22.1664C86.3776 22.4711 86.347 22.8673 86.3469 23.3549C86.3468 23.7328 86.4107 24.0102 86.5387 24.187C86.1607 24.4855 85.8132 24.6348 85.4963 24.6347Z" fill="#121654"/>
<path d="M57.5406 40.7702C56.9372 40.7701 56.4617 40.6876 56.1144 40.523C55.767 40.3583 55.5933 40.1297 55.5934 39.8371C55.5934 39.7152 55.63 39.5994 55.7032 39.4897C55.7764 39.38 55.88 39.2886 56.0141 39.2155C56.1664 39.5203 56.3706 39.7551 56.6265 39.9197C56.8825 40.0782 57.1659 40.1575 57.4767 40.1576C57.9156 40.1577 58.2691 40.0755 58.5374 39.911C58.8056 39.7465 58.9398 39.5088 58.9398 39.198C58.9399 39.009 58.8394 38.8566 58.6382 38.7408C58.4432 38.6249 58.1415 38.4968 57.7332 38.3565C57.3553 38.2284 57.0445 38.1065 56.8007 37.9906C56.5569 37.8747 56.3497 37.7192 56.1791 37.5241C56.0085 37.323 55.9232 37.0761 55.9233 36.7835C55.9234 36.4483 56.0393 36.1496 56.271 35.8876C56.5026 35.6256 56.8227 35.4215 57.2311 35.2753C57.6456 35.1291 58.1211 35.0561 58.6575 35.0562C59.1451 35.0563 59.5443 35.1296 59.8551 35.2759C60.172 35.4223 60.3305 35.6082 60.3304 35.8338C60.3303 36.0532 60.2572 36.2238 60.1108 36.3457C59.9645 36.4615 59.7725 36.5193 59.5348 36.5193C59.3032 36.5192 59.1051 36.446 58.9406 36.2997C58.776 36.1534 58.6511 35.94 58.5659 35.6596C58.0661 35.7143 57.6729 35.8331 57.3864 36.0159C57.1059 36.1926 56.9657 36.4089 56.9656 36.6649C56.9656 36.7929 57.0143 36.9026 57.1118 36.9941C57.2154 37.0856 57.3434 37.1648 57.4958 37.2319C57.6481 37.2929 57.8645 37.3722 58.1448 37.4698C58.5349 37.604 58.8488 37.729 59.0865 37.8449C59.3302 37.9608 59.5374 38.1193 59.7081 38.3205C59.8848 38.5156 59.9731 38.7624 59.973 39.0611C59.9729 39.3842 59.8753 39.6767 59.6802 39.9387C59.4851 40.1947 59.2016 40.3958 58.8298 40.542C58.464 40.6942 58.0343 40.7703 57.5406 40.7702ZM62.6895 40.7715C62.5127 40.7715 62.3787 40.7349 62.2873 40.6617C62.1958 40.5946 62.1288 40.4818 62.0862 40.3234C62.0497 40.1588 62.0314 39.9241 62.0315 39.6193C62.0316 39.2963 62.0347 39.0525 62.0408 38.8879C62.0471 38.2174 62.0411 37.6872 62.023 37.2971C62.0048 36.907 61.9531 36.5321 61.8678 36.1724C61.7826 35.8128 61.6425 35.5171 61.4475 35.2855C61.6426 35.1331 61.859 35.057 62.0967 35.0571C62.3527 35.0571 62.5477 35.1456 62.6817 35.3224C62.8219 35.4992 62.9193 35.7887 62.9741 36.191C63.0289 36.5872 63.0561 37.151 63.056 37.8825L63.0557 39.0345C63.0555 39.5647 63.0524 39.8817 63.0463 39.9853L63.1377 39.9853C63.7657 39.1992 64.2261 38.477 64.5188 37.8188C64.8116 37.1545 64.9946 36.6426 65.0678 36.283C65.0739 36.2708 65.0769 36.2616 65.0769 36.2555C65.0769 36.2434 65.0769 36.2342 65.0769 36.2281C65.077 36.1672 65.0526 36.094 65.0039 36.0087C64.9551 35.9172 64.9064 35.8319 64.8576 35.7526C64.7967 35.6734 64.7571 35.6094 64.7388 35.5606C64.8547 35.4753 64.9552 35.4174 65.0406 35.387C65.132 35.3504 65.2265 35.3322 65.324 35.3322C65.5008 35.3322 65.6379 35.3902 65.7354 35.506C65.839 35.6218 65.8908 35.7834 65.8907 35.9906C65.8907 36.2649 65.8235 36.5666 65.6893 36.8957C65.5552 37.2187 65.3265 37.6727 65.0033 38.2578C64.9728 38.3066 64.9423 38.3584 64.9118 38.4132C64.8813 38.4681 64.8508 38.526 64.8203 38.5869C64.4911 39.1781 64.2106 39.629 63.9789 39.9398C63.7472 40.2506 63.5307 40.467 63.3296 40.5888C63.1345 40.7107 62.9211 40.7716 62.6895 40.7715ZM65.8529 40.7723C65.6335 40.7723 65.4629 40.7204 65.341 40.6168C65.2191 40.5131 65.1308 40.3729 65.0759 40.1961C65.0272 40.0132 64.9938 39.7786 64.9755 39.4921L64.6931 35.5697C64.7663 35.4905 64.8577 35.4326 64.9674 35.3961C65.0772 35.3534 65.196 35.3321 65.324 35.3322L65.5616 35.8808L65.7069 39.986L65.7983 39.986C66.4142 38.9744 66.8624 38.1486 67.1429 37.5086C67.4295 36.8626 67.5729 36.375 67.573 36.0459C67.5731 35.7472 67.5122 35.4943 67.3903 35.287C67.5427 35.2017 67.6707 35.1438 67.7744 35.1134C67.8841 35.0768 67.9999 35.0586 68.1218 35.0586C68.2803 35.0586 68.4022 35.1196 68.4875 35.2416C68.5789 35.3635 68.6246 35.5281 68.6245 35.7353C68.6244 35.9791 68.5543 36.3021 68.414 36.7044C68.2798 37.1005 68.0724 37.582 67.7919 38.1488C67.5114 38.7156 67.1577 39.3677 66.7308 40.1051L66.877 40.3794C66.7673 40.4952 66.6149 40.5896 66.4198 40.6627C66.2248 40.7358 66.0358 40.7724 65.8529 40.7723ZM71.4672 40.7737C71.1381 40.7737 70.8455 40.6852 70.5896 40.5084C70.3397 40.3315 70.1447 40.0816 70.0046 39.7585C69.8706 39.4293 69.8037 39.0514 69.8038 38.6247C69.8039 37.9665 69.9595 37.3661 70.2705 36.8237C70.5815 36.2752 71.0052 35.8456 71.5417 35.5349C72.0782 35.2181 72.6694 35.0598 73.3155 35.0599C73.5959 35.06 73.8824 35.0844 74.1749 35.1333C74.248 35.2613 74.2846 35.4045 74.2845 35.563C73.5958 35.5628 72.9984 35.6937 72.4924 35.9557C71.9865 36.2177 71.5993 36.5802 71.331 37.0434C71.0627 37.5005 70.9285 38.0186 70.9283 38.5976C70.9282 39.0121 71.0135 39.3351 71.1841 39.5668C71.3547 39.7985 71.5954 39.9143 71.9063 39.9144C72.4732 39.9146 72.9395 39.5551 73.3054 38.8359C73.6713 38.1107 73.9459 37.0197 74.1291 35.563C74.1962 35.4777 74.2815 35.4106 74.3852 35.3619C74.4949 35.3132 74.6046 35.2888 74.7143 35.2888C74.8667 35.2889 74.9856 35.3255 75.0709 35.3986C75.1623 35.4718 75.208 35.5724 75.2079 35.7004C75.2079 35.8406 75.1865 36.0082 75.1438 36.2032C75.1072 36.3983 75.0431 36.6847 74.9516 37.0626C74.8052 37.6782 74.6923 38.2115 74.6129 38.6625C74.5335 39.1136 74.4938 39.5737 74.4937 40.0431C74.4936 40.2564 74.5485 40.4149 74.6581 40.5185C74.4692 40.6892 74.2649 40.7744 74.0455 40.7744C73.8383 40.7743 73.6798 40.7103 73.5701 40.5823C73.4604 40.4542 73.4056 40.2683 73.4057 40.0245C73.4057 39.8904 73.4271 39.7076 73.4698 39.476L73.3784 39.4302C73.1589 39.8568 72.8815 40.189 72.5462 40.4266C72.217 40.6581 71.8573 40.7738 71.4672 40.7737ZM78.7911 40.547C78.4864 40.5469 78.1969 40.5225 77.9226 40.4737C77.8495 40.3456 77.8129 40.2024 77.813 40.0439C78.4835 40.0441 79.0717 39.9284 79.5776 39.6969C80.0897 39.4593 80.4829 39.1303 80.7573 38.7098C81.0378 38.2832 81.1781 37.7926 81.1783 37.2379C81.1784 36.8234 81.0901 36.5004 80.9134 36.2687C80.7428 36.037 80.502 35.9212 80.1912 35.9211C79.8803 35.921 79.5907 36.0672 79.3225 36.3597C79.0603 36.6461 78.8225 37.0697 78.609 37.6304C78.3955 38.185 78.2034 38.8707 78.0325 39.6874L78.2528 36.204L78.7282 36.5516C78.9416 36.0762 79.216 35.7106 79.5513 35.4546C79.8866 35.1926 80.2462 35.0617 80.6302 35.0618C80.9594 35.0619 81.2489 35.1503 81.4987 35.3271C81.7547 35.504 81.9497 35.757 82.0837 36.0861C82.2238 36.4092 82.2938 36.7841 82.2937 37.2108C82.2935 37.8264 82.138 38.3902 81.827 38.9021C81.5221 39.4079 81.1014 39.8101 80.565 40.1086C80.0285 40.401 79.4372 40.5472 78.7911 40.547ZM77.401 42.3752C77.212 42.3752 77.0688 42.3112 76.9713 42.1831C76.8738 42.0612 76.8251 41.8722 76.8252 41.6162C76.8252 41.3785 76.9077 40.705 77.0725 39.5957C77.2435 38.4803 77.451 37.2522 77.6952 35.9113L77.293 35.4541C77.4393 35.3383 77.61 35.2439 77.8051 35.1708C78.0001 35.0977 78.18 35.0612 78.3445 35.0612C78.5152 35.0612 78.6371 35.1009 78.7102 35.1801C78.7833 35.2533 78.8199 35.3813 78.8198 35.5642C78.8198 35.6861 78.7984 35.8537 78.7557 36.067C78.7191 36.2742 78.655 36.5729 78.5635 36.963C78.356 37.865 78.1912 38.6756 78.0691 39.3948C77.9532 40.108 77.8951 40.8333 77.8949 41.5708C77.8948 41.6866 77.9131 41.7933 77.9497 41.8908C77.9862 41.9944 78.0319 42.0706 78.0867 42.1194C77.9953 42.2047 77.8917 42.2687 77.7758 42.3113C77.66 42.354 77.5351 42.3753 77.401 42.3752ZM87.1913 40.7777C87.0084 40.7777 86.853 40.7167 86.7251 40.5947C86.6032 40.4728 86.5423 40.3235 86.5423 40.1467C86.5423 40.0126 86.5729 39.8877 86.6338 39.7719C86.7009 39.65 86.7924 39.5555 86.9082 39.4885C87.024 39.4154 87.1551 39.3789 87.3014 39.3789C87.4903 39.3789 87.6457 39.4399 87.7676 39.5619C87.8895 39.6838 87.9504 39.8332 87.9503 40.0099C87.9503 40.144 87.9168 40.272 87.8497 40.3939C87.7826 40.5097 87.6881 40.6011 87.5662 40.6681C87.4504 40.7412 87.3254 40.7778 87.1913 40.7777ZM93.9602 40.7794C93.3568 40.7793 92.8814 40.6969 92.534 40.5322C92.1866 40.3676 92.013 40.1389 92.013 39.8464C92.0131 39.7245 92.0497 39.6087 92.1228 39.499C92.196 39.3893 92.2996 39.2979 92.4338 39.2248C92.5861 39.5296 92.7902 39.7643 93.0461 39.9289C93.3021 40.0875 93.5855 40.1668 93.8964 40.1668C94.3352 40.167 94.6888 40.0848 94.957 39.9203C95.2252 39.7558 95.3594 39.5181 95.3595 39.2072C95.3595 39.0183 95.259 38.8659 95.0579 38.75C94.8629 38.6341 94.5612 38.5061 94.1528 38.3658C93.775 38.2377 93.4641 38.1157 93.2204 37.9998C92.9766 37.8839 92.7694 37.7285 92.5988 37.5334C92.4281 37.3322 92.3429 37.0853 92.3429 36.7927C92.343 36.4575 92.4589 36.1589 92.6906 35.8968C92.9223 35.6348 93.2423 35.4307 93.6508 35.2845C94.0653 35.1383 94.5407 35.0653 95.0771 35.0654C95.5647 35.0656 95.9639 35.1388 96.2748 35.2852C96.5917 35.4315 96.7501 35.6175 96.75 35.843C96.75 36.0624 96.6768 36.2331 96.5305 36.3549C96.3842 36.4707 96.1922 36.5286 95.9544 36.5285C95.7228 36.5285 95.5247 36.4553 95.3602 36.3089C95.1957 36.1626 95.0708 35.9492 94.9855 35.6688C94.4857 35.7236 94.0925 35.8423 93.806 36.0251C93.5256 36.2018 93.3853 36.4181 93.3853 36.6741C93.3852 36.8021 93.434 36.9119 93.5315 37.0033C93.6351 37.0948 93.763 37.1741 93.9154 37.2411C94.0678 37.3021 94.2841 37.3814 94.5645 37.479C94.9545 37.6132 95.2684 37.7382 95.5061 37.8541C95.7499 37.97 95.9571 38.1285 96.1277 38.3297C96.3044 38.5248 96.3927 38.7717 96.3927 39.0703C96.3926 39.3934 96.295 39.6859 96.0999 39.948C95.9047 40.2039 95.6213 40.405 95.2494 40.5512C94.8837 40.7035 94.4539 40.7796 93.9602 40.7794ZM98.5514 40.7806C98.3381 40.7805 98.1796 40.7256 98.076 40.6159C97.9725 40.5062 97.9207 40.3446 97.9207 40.1313C97.9208 39.918 97.9727 39.5187 98.0765 38.9336C98.1802 38.3424 98.3542 37.416 98.5983 36.1543C98.6594 35.8496 98.7204 35.5448 98.7814 35.2401C98.8424 34.9292 98.9004 34.6214 98.9554 34.3167L98.5532 33.8595C98.6934 33.7376 98.8611 33.6432 99.0561 33.5762C99.2573 33.5031 99.4401 33.4665 99.6047 33.4666C99.7754 33.4666 99.8973 33.5063 99.9704 33.5855C100.044 33.6587 100.08 33.7867 100.08 33.9696C100.08 34.0854 100.062 34.2377 100.025 34.4267C99.9884 34.6095 99.9274 34.8716 99.842 35.2129C99.6772 35.8773 99.5583 36.3923 99.485 36.758L99.5764 36.8037C99.9118 36.2004 100.299 35.7616 100.738 35.4874C101.177 35.2072 101.619 35.0671 102.064 35.0672C102.454 35.0673 102.746 35.1679 102.941 35.3691C103.136 35.5642 103.234 35.869 103.234 36.2835C103.234 36.5273 103.206 36.7803 103.151 37.0423C103.102 37.3044 103.029 37.6335 102.932 38.0297C102.816 38.4929 102.73 38.8738 102.675 39.1725C102.62 39.4651 102.593 39.7576 102.593 40.0502C102.593 40.2818 102.632 40.4403 102.711 40.5257C102.523 40.6963 102.327 40.7816 102.126 40.7815C101.913 40.7815 101.758 40.7266 101.66 40.6168C101.563 40.5071 101.514 40.3455 101.514 40.1322C101.514 39.9006 101.538 39.6415 101.587 39.3551C101.642 39.0625 101.718 38.6846 101.816 38.2214C101.908 37.8375 101.975 37.5175 102.017 37.2615C102.066 36.9994 102.091 36.7739 102.091 36.5849C102.091 36.0912 101.905 35.8443 101.533 35.8442C101.161 35.8441 100.777 36.0269 100.381 36.3925C99.9909 36.7581 99.6647 37.2639 99.4024 37.91C99.1402 38.5499 99.009 39.263 99.0088 40.0493C99.0087 40.2748 99.0452 40.4333 99.1184 40.5247C98.9416 40.6954 98.7526 40.7807 98.5514 40.7806ZM106.271 40.7826C105.942 40.7825 105.649 40.694 105.393 40.5172C105.143 40.3404 104.948 40.0904 104.808 39.7673C104.674 39.4382 104.607 39.0602 104.607 38.6336C104.608 37.9753 104.763 37.3749 105.074 36.8325C105.385 36.284 105.809 35.8544 106.345 35.5437C106.882 35.2269 107.473 35.0686 108.119 35.0687C108.399 35.0688 108.686 35.0933 108.979 35.1421C109.052 35.2701 109.088 35.4134 109.088 35.5718C108.399 35.5717 107.802 35.7026 107.296 35.9645C106.79 36.2265 106.403 36.5891 106.135 37.0522C105.866 37.5093 105.732 38.0274 105.732 38.6064C105.732 39.0209 105.817 39.344 105.988 39.5756C106.158 39.8073 106.399 39.9232 106.71 39.9232C107.277 39.9234 107.743 39.5639 108.109 38.8447C108.475 38.1195 108.749 37.0285 108.933 35.5718C109 35.4865 109.085 35.4195 109.189 35.3707C109.298 35.322 109.408 35.2976 109.518 35.2977C109.67 35.2977 109.789 35.3343 109.874 35.4075C109.966 35.4806 110.012 35.5812 110.012 35.7092C110.011 35.8494 109.99 36.017 109.947 36.2121C109.911 36.4071 109.847 36.6936 109.755 37.0714C109.609 37.687 109.496 38.2203 109.416 38.6714C109.337 39.1224 109.297 39.5826 109.297 40.0519C109.297 40.2652 109.352 40.4237 109.462 40.5274C109.273 40.698 109.069 40.7833 108.849 40.7832C108.642 40.7832 108.483 40.7191 108.374 40.5911C108.264 40.4631 108.209 40.2771 108.209 40.0333C108.209 39.8992 108.231 39.7164 108.273 39.4848L108.182 39.439C107.962 39.8657 107.685 40.1978 107.35 40.4354C107.021 40.6669 106.661 40.7827 106.271 40.7826ZM112.315 40.7841C112.107 40.784 111.952 40.72 111.848 40.592C111.745 40.47 111.693 40.2811 111.693 40.0251C111.693 39.7752 111.776 39.2266 111.94 38.3794C112.111 37.5261 112.294 36.7277 112.49 35.9841L112.087 35.5269C112.252 35.3928 112.411 35.2893 112.563 35.2162C112.721 35.137 112.865 35.0974 112.993 35.0974C113.163 35.0974 113.288 35.1462 113.367 35.2438C113.447 35.3352 113.486 35.4541 113.486 35.6004C113.486 35.7893 113.453 35.9966 113.386 36.2221C113.325 36.4415 113.233 36.7005 113.111 36.9991L113.202 37.0449C113.392 36.5939 113.584 36.2221 113.779 35.9296C113.98 35.6371 114.181 35.4208 114.382 35.2806C114.59 35.1344 114.797 35.0613 115.004 35.0613C115.205 35.0614 115.355 35.1071 115.452 35.1986C115.556 35.284 115.607 35.4181 115.607 35.6009C115.607 35.8021 115.528 35.9636 115.37 36.0854C115.211 36.2073 115.004 36.2682 114.748 36.2681C114.425 36.2681 114.111 36.4508 113.806 36.8165C113.501 37.1821 113.254 37.6575 113.065 38.2426C112.876 38.8277 112.781 39.4311 112.781 40.0528C112.781 40.2783 112.818 40.4368 112.891 40.5282C112.708 40.6989 112.516 40.7841 112.315 40.7841ZM117.852 40.7855C117.206 40.7853 116.7 40.5871 116.335 40.1908C115.969 39.7945 115.786 39.249 115.786 38.5541C115.787 37.8958 115.93 37.3016 116.217 36.7714C116.503 36.2411 116.899 35.8268 117.405 35.5282C117.911 35.2236 118.475 35.0714 119.097 35.0715C119.578 35.0716 119.953 35.1875 120.221 35.4192C120.496 35.6509 120.633 35.971 120.633 36.3793C120.633 36.8121 120.477 37.1839 120.166 37.4946C119.855 37.7993 119.401 38.0339 118.804 38.1983C118.212 38.3566 117.496 38.4357 116.655 38.4355L116.765 37.9235C117.673 37.9298 118.377 37.7959 118.877 37.5218C119.383 37.2415 119.636 36.8515 119.636 36.3517C119.636 36.1383 119.572 35.9676 119.444 35.8396C119.316 35.7116 119.149 35.6475 118.941 35.6475C118.582 35.6474 118.246 35.7814 117.936 36.0495C117.625 36.3115 117.378 36.6711 117.195 37.1282C117.012 37.5792 116.92 38.0729 116.92 38.6093C116.92 39.0969 117.011 39.4809 117.194 39.7613C117.377 40.0357 117.627 40.1729 117.944 40.1729C118.34 40.173 118.663 40.0482 118.913 39.7983C119.163 39.5485 119.3 39.2163 119.325 38.8019C119.562 38.8019 119.745 38.8477 119.873 38.9391C120.001 39.0245 120.065 39.1617 120.065 39.3506C120.065 39.5944 119.967 39.8291 119.772 40.0545C119.577 40.2739 119.309 40.4506 118.968 40.5846C118.632 40.7186 118.26 40.7856 117.852 40.7855ZM125.236 40.7874C125.053 40.7873 124.898 40.7263 124.77 40.6044C124.648 40.4825 124.587 40.3331 124.587 40.1563C124.587 40.0222 124.617 39.8973 124.678 39.7815C124.746 39.6596 124.837 39.5652 124.953 39.4981C125.069 39.425 125.2 39.3885 125.346 39.3885C125.535 39.3886 125.69 39.4496 125.812 39.5715C125.934 39.6934 125.995 39.8428 125.995 40.0196C125.995 40.1537 125.961 40.2816 125.894 40.4035C125.827 40.5193 125.733 40.6107 125.611 40.6777C125.495 40.7509 125.37 40.7874 125.236 40.7874ZM131.008 42.7088C130.569 42.7087 130.212 42.6324 129.938 42.48C129.67 42.3336 129.536 42.1446 129.536 41.913C129.536 41.7911 129.576 41.6631 129.655 41.5291C129.734 41.4011 129.838 41.2914 129.966 41.2C130.106 41.4438 130.277 41.6237 130.478 41.7395C130.685 41.8615 130.935 41.9225 131.227 41.9226C131.691 41.9227 132.163 41.7247 132.645 41.3287C133.126 40.9387 133.526 40.2714 133.843 39.3267C134.166 38.3759 134.298 37.1264 134.237 35.5782C134.377 35.4563 134.487 35.3771 134.566 35.3406C134.652 35.2979 134.737 35.2766 134.822 35.2767C134.95 35.2767 135.045 35.3072 135.106 35.3682C135.173 35.423 135.206 35.5084 135.206 35.6242C135.206 36.9347 135.065 38.1232 134.785 39.1898C134.504 40.2503 134.05 41.1005 133.422 41.7403C132.8 42.3862 131.995 42.7091 131.008 42.7088ZM131.685 40.5239C131.35 40.5238 131.051 40.4384 130.789 40.2676C130.533 40.0908 130.332 39.8439 130.186 39.5269C130.046 39.2038 129.976 38.832 129.976 38.4114C129.976 37.7836 130.113 37.2168 130.388 36.711C130.668 36.2051 131.067 35.806 131.586 35.5135C132.11 35.2211 132.722 35.075 133.423 35.0752C133.74 35.0752 134.027 35.0997 134.283 35.1485C134.356 35.2643 134.393 35.4076 134.392 35.5783C133.728 35.5781 133.146 35.6968 132.646 35.9344C132.152 36.1659 131.771 36.4919 131.503 36.9124C131.235 37.3329 131.1 37.8113 131.1 38.3477C131.1 38.7927 131.189 39.1401 131.365 39.3901C131.548 39.6339 131.801 39.7559 132.124 39.756C132.417 39.756 132.724 39.6312 133.047 39.3813C133.371 39.1254 133.648 38.6866 133.88 38.065C134.112 37.4372 134.228 36.6083 134.228 35.5782L134.273 39.2171L133.688 39.2169C133.474 39.6253 133.184 39.9452 132.819 40.1767C132.453 40.4082 132.075 40.524 131.685 40.5239ZM137.27 40.7904C137.063 40.7904 136.907 40.7263 136.804 40.5983C136.7 40.4764 136.648 40.2874 136.648 40.0314C136.649 39.7815 136.731 39.2329 136.896 38.3857C137.067 37.5325 137.25 36.734 137.445 35.9905L137.043 35.5332C137.207 35.3992 137.366 35.2956 137.518 35.2225C137.677 35.1433 137.82 35.1037 137.948 35.1037C138.119 35.1038 138.244 35.1526 138.323 35.2501C138.402 35.3416 138.442 35.4604 138.442 35.6067C138.442 35.7957 138.408 36.0029 138.341 36.2284C138.28 36.4478 138.188 36.7068 138.066 37.0055L138.158 37.0512C138.347 36.6002 138.539 36.2284 138.734 35.9359C138.935 35.6434 139.137 35.4271 139.338 35.2869C139.545 35.1407 139.752 35.0676 139.959 35.0677C140.161 35.0677 140.31 35.1135 140.407 35.2049C140.511 35.2903 140.563 35.4244 140.563 35.6072C140.563 35.8084 140.483 35.9699 140.325 36.0918C140.166 36.2136 139.959 36.2745 139.703 36.2745C139.38 36.2744 139.066 36.4572 138.761 36.8228C138.456 37.1884 138.209 37.6638 138.02 38.2489C137.831 38.834 137.737 39.4374 137.736 40.0591C137.736 40.2846 137.773 40.4431 137.846 40.5346C137.663 40.7052 137.471 40.7905 137.27 40.7904ZM142.963 40.7919C142.524 40.7917 142.137 40.6941 141.802 40.499C141.473 40.2978 141.217 40.0173 141.034 39.6577C140.857 39.2919 140.769 38.8683 140.769 38.3867C140.769 37.7406 140.904 37.1677 141.172 36.668C141.446 36.1682 141.827 35.7782 142.315 35.498C142.803 35.2177 143.354 35.0777 143.97 35.0778C144.226 35.0779 144.461 35.1023 144.674 35.1511C144.741 35.2487 144.781 35.3919 144.793 35.5809C144.183 35.5807 143.662 35.7025 143.229 35.9462C142.796 36.1899 142.467 36.5312 142.242 36.97C142.016 37.4027 141.903 37.8963 141.903 38.451C141.903 38.9935 142.003 39.4171 142.204 39.7219C142.405 40.0268 142.692 40.1792 143.064 40.1793C143.423 40.1794 143.746 40.0789 144.033 39.8778C144.325 39.6768 144.563 39.3904 144.746 39.0186C144.935 38.6468 145.054 38.2141 145.103 37.7204C144.853 37.5619 144.67 37.3881 144.555 37.1991C144.445 37.0101 144.39 36.7876 144.39 36.5316C144.39 36.3793 144.421 36.2421 144.482 36.1202C144.549 35.9923 144.637 35.8948 144.747 35.8277C144.857 35.7546 144.982 35.7181 145.122 35.7181C145.402 35.7182 145.622 35.8432 145.78 36.0931C145.938 36.3431 146.018 36.6905 146.017 37.1355C146.017 37.806 145.88 38.4215 145.606 38.9822C145.337 39.5368 144.968 39.9787 144.499 40.3077C144.036 40.6306 143.524 40.792 142.963 40.7919ZM148.591 40.7933C148.415 40.7932 148.28 40.7566 148.189 40.6835C148.098 40.6164 148.031 40.5036 147.988 40.3451C147.951 40.1805 147.933 39.9459 147.933 39.6411C147.933 39.3181 147.936 39.0743 147.943 38.9097C147.949 38.2392 147.943 37.7089 147.925 37.3188C147.907 36.9287 147.855 36.5539 147.77 36.1942C147.684 35.8346 147.544 35.5389 147.349 35.3073C147.544 35.1549 147.761 35.0788 147.998 35.0788C148.254 35.0789 148.449 35.1673 148.584 35.3441C148.724 35.5209 148.821 35.8105 148.876 36.2128C148.931 36.609 148.958 37.1728 148.958 37.9042L148.957 39.0562C148.957 39.5865 148.954 39.9035 148.948 40.0071L149.039 40.0071C149.667 39.221 150.128 38.4988 150.421 37.8406C150.713 37.1763 150.896 36.6643 150.97 36.3047C150.976 36.2926 150.979 36.2834 150.979 36.2773C150.979 36.2651 150.979 36.256 150.979 36.2499C150.979 36.1889 150.954 36.1158 150.906 36.0304C150.857 35.939 150.808 35.8537 150.759 35.7744C150.698 35.6952 150.659 35.6311 150.641 35.5824C150.756 35.4971 150.857 35.4392 150.942 35.4087C151.034 35.3722 151.128 35.3539 151.226 35.354C151.403 35.354 151.54 35.4119 151.637 35.5278C151.741 35.6436 151.793 35.8051 151.792 36.0124C151.792 36.2867 151.725 36.5884 151.591 36.9175C151.457 37.2405 151.228 37.6945 150.905 38.2796C150.875 38.3283 150.844 38.3801 150.814 38.435C150.783 38.4898 150.753 38.5477 150.722 38.6087C150.393 39.1998 150.112 39.6508 149.881 39.9616C149.649 40.2724 149.433 40.4887 149.231 40.6106C149.036 40.7324 148.823 40.7933 148.591 40.7933ZM151.755 40.7941C151.535 40.794 151.365 40.7422 151.243 40.6385C151.121 40.5349 151.033 40.3947 150.978 40.2179C150.929 40.035 150.896 39.8003 150.877 39.5139L150.595 35.5915C150.668 35.5123 150.759 35.4544 150.869 35.4179C150.979 35.3752 151.098 35.3539 151.226 35.354L151.463 35.9026L151.609 40.0078L151.7 40.0078C152.316 38.9961 152.764 38.1703 153.045 37.5304C153.331 36.8844 153.475 36.3968 153.475 36.0677C153.475 35.769 153.414 35.516 153.292 35.3088C153.445 35.2235 153.573 35.1656 153.676 35.1351C153.786 35.0986 153.902 35.0803 154.024 35.0804C154.182 35.0804 154.304 35.1414 154.389 35.2633C154.481 35.3853 154.526 35.5498 154.526 35.7571C154.526 36.0009 154.456 36.3239 154.316 36.7262C154.182 37.1223 153.974 37.6038 153.694 38.1706C153.413 38.7374 153.059 39.3895 152.633 40.1269L152.779 40.4012C152.669 40.517 152.517 40.6114 152.322 40.6845C152.127 40.7576 151.938 40.7941 151.755 40.7941Z" fill="black"/>
</svg>
