<svg width="94" height="52" viewBox="0 0 94 52" fill="none" xmlns="http://www.w3.org/2000/svg">
<g filter="url(#filter0_d_899_4370)">
<path d="M9.20675 31.1487C1.10216 31.0337 20.7056 12.1746 20.7056 12.1746L26.4621 5.56061C26.6338 5.36334 26.7196 5.2647 26.7513 5.17137C26.8156 4.98166 26.7605 4.77186 26.6113 4.63824C26.5378 4.57251 26.4146 4.52879 26.1681 4.44134L25.4167 4.17474C24.8201 3.96309 24.5218 3.85726 24.4343 3.75292C24.2537 3.53764 24.286 3.21586 24.5056 3.04066C24.6121 2.95575 24.9255 2.91117 25.5521 2.82201L31.9259 1.91518C32.1194 1.88765 32.2162 1.87388 32.2968 1.88886C32.4598 1.91915 32.5972 2.02828 32.6636 2.18021C32.6964 2.25533 32.7049 2.35267 32.7219 2.54736L33.2856 9.00938C33.3284 9.49997 33.3498 9.74527 33.2982 9.86253C33.192 10.1036 32.9171 10.221 32.6696 10.1309C32.5492 10.0871 32.3868 9.90203 32.062 9.53184L31.2242 8.57677C31.0979 8.43278 31.0347 8.36078 30.9643 8.31975C30.8225 8.23717 30.6471 8.22964 30.4988 8.29978C30.4251 8.33462 30.3577 8.39937 30.2227 8.52888C27.1075 11.519 11.402 26.8169 20.2363 22.9678C30.0147 18.7074 39.1705 16.89 40.4091 24.0869C42.5537 36.547 20.078 44.9148 14.4471 46.8056C14.123 46.9144 13.961 46.9688 13.8817 47.0429C13.7173 47.1965 13.6752 47.4303 13.7758 47.6316C13.8242 47.7287 13.9552 47.8346 14.2171 48.0464L14.6657 48.4094L14.6658 48.4094C15.0222 48.6977 15.2004 48.8418 15.2491 48.9574C15.3492 49.1948 15.2526 49.4693 15.0259 49.5917C14.9155 49.6513 14.6863 49.652 14.2279 49.6536L7.9971 49.6748L7.99706 49.6748C7.81691 49.6754 7.72682 49.6758 7.65302 49.6526C7.50391 49.6059 7.38521 49.4922 7.33217 49.3452C7.30591 49.2725 7.30236 49.1825 7.29526 49.0024L7.08297 43.6201C7.06828 43.2477 7.06094 43.0615 7.10841 42.955C7.20554 42.7369 7.44326 42.6179 7.67603 42.6709C7.78979 42.6967 7.93443 42.8142 8.22372 43.0491L9.59521 44.163C9.67441 44.2273 9.71401 44.2594 9.75753 44.2824C9.844 44.3281 9.94508 44.3477 10.0423 44.3376C10.0913 44.3326 10.139 44.3179 10.2344 44.2885C13.6538 43.2341 40.6571 34.6009 33.9896 26.8832C28.6768 20.7336 17.3113 31.2636 9.20675 31.1487Z" fill="white"/>
<path d="M24.7863 2.6874C24.9639 2.65302 25.2065 2.6187 25.517 2.57453L31.8911 1.66773L32.1325 1.63707C32.2074 1.63097 32.2772 1.63133 32.3427 1.6435L32.4318 1.66583C32.6365 1.73065 32.8053 1.88057 32.8925 2.08001L32.925 2.17649C32.9337 2.21061 32.9409 2.24633 32.9464 2.28378L32.9711 2.52528L33.5343 8.98725C33.5555 9.2294 33.5724 9.42249 33.5769 9.56853C33.58 9.66991 33.5789 9.7757 33.5567 9.87127L33.527 9.96358C33.3876 10.2799 33.0543 10.4539 32.7245 10.4019L32.5844 10.3656C32.4653 10.3222 32.3591 10.2259 32.2643 10.1294L31.8739 9.69715L31.0365 8.74134C30.9665 8.66152 30.9233 8.61408 30.8946 8.58444L30.8386 8.5356C30.7857 8.50476 30.7226 8.49556 30.6633 8.50731L30.6061 8.52608C30.5922 8.53264 30.5766 8.54259 30.5461 8.5691L30.3958 8.70893C28.8379 10.2041 24.1408 14.769 20.9379 18.4762C20.1376 19.4025 19.4335 20.2723 18.8962 21.0244C18.3539 21.7835 17.9982 22.4004 17.8716 22.8269C17.8074 23.0432 17.8162 23.1649 17.8408 23.2236C17.8552 23.2578 17.8892 23.308 18.0351 23.3279C18.1915 23.3491 18.4362 23.3264 18.7934 23.2311C19.1465 23.1368 19.5909 22.976 20.1365 22.7383L21.0529 22.3457C25.6236 20.4195 30.0346 19.0643 33.5193 18.9813C35.38 18.937 37.0031 19.2541 38.2466 20.0673C39.4987 20.886 40.3358 22.1878 40.6554 24.0444C41.2062 27.2447 40.1715 30.172 38.25 32.7762C36.3311 35.3767 33.5189 37.6693 30.4789 39.6203C25.1582 43.035 19.0956 45.4311 15.773 46.6115L14.5263 47.043C14.3616 47.0984 14.2482 47.1364 14.1656 47.1695C14.1253 47.1857 14.0977 47.1987 14.0783 47.2093C14.0693 47.2143 14.0627 47.2178 14.0585 47.2207L14.0524 47.2257C13.9689 47.3037 13.948 47.418 13.9991 47.5203L14.0851 47.6115C14.1499 47.6704 14.2412 47.7444 14.3743 47.852L14.8231 48.2148L15.2408 48.563C15.336 48.6495 15.4313 48.7466 15.4792 48.8599L15.5225 48.9961C15.5807 49.2702 15.4799 49.5554 15.2627 49.7325L15.1445 49.8113C15.0362 49.8698 14.9009 49.8864 14.7723 49.8942L14.2289 49.9035L7.99766 49.9246L7.7724 49.9227C7.7375 49.9208 7.70391 49.9173 7.67152 49.9124L7.57861 49.8907C7.38279 49.8294 7.22197 49.6913 7.13156 49.5098L7.0971 49.4305C7.05442 49.3123 7.05228 49.1736 7.04592 49.0123L6.83296 43.6296L6.8224 43.1825C6.82477 43.0712 6.83455 42.9552 6.87974 42.8536L6.94399 42.7375C7.11464 42.4854 7.42648 42.358 7.73192 42.4274L7.81153 42.4524C7.88921 42.4832 7.96163 42.5299 8.02942 42.5784C8.12356 42.6458 8.23922 42.7395 8.3812 42.8548L9.7532 43.9692L9.8741 44.0614L9.94358 44.0851C9.96779 44.0898 9.99263 44.0919 10.0167 44.0894L10.1605 44.0498L11.0628 43.7656C13.7457 42.906 20.2471 40.7011 25.7807 37.8624C28.9479 36.2377 31.7677 34.4194 33.3818 32.5469C34.1874 31.6122 34.6754 30.6839 34.7748 29.7763C34.8669 28.935 34.6287 28.0811 33.9433 27.2192L33.8006 27.0465C32.5355 25.5822 30.9129 25.1036 29.0312 25.2207C27.136 25.3385 24.9967 26.0606 22.7401 26.9842C20.505 27.899 18.1258 29.0261 15.8407 29.8998C13.5455 30.7774 11.2783 31.4284 9.20293 31.399C8.15097 31.384 7.44503 31.0613 7.14602 30.4044C6.86165 29.7793 6.99791 28.9474 7.35123 28.0443C8.06526 26.2195 9.77997 23.8245 11.7236 21.4602C13.6735 19.0883 15.8765 16.7211 17.5899 14.949C18.4466 14.0629 19.1815 13.3245 19.7026 12.8077C19.9632 12.5492 20.1707 12.3458 20.3127 12.2072C20.3837 12.1379 20.4388 12.0852 20.4758 12.0493C20.4942 12.0316 20.5079 12.0176 20.5174 12.0085C20.5204 12.0055 20.5228 12.0023 20.5249 12.0002L26.2732 5.39633L26.461 5.17474C26.5021 5.12126 26.5123 5.099 26.5149 5.09113L26.5272 5.01866C26.5288 4.97033 26.5167 4.92245 26.4917 4.8811L26.4443 4.82484C26.4382 4.8193 26.4189 4.8047 26.3571 4.77842L26.0849 4.67663L25.3336 4.41056C25.038 4.3057 24.8067 4.22339 24.6394 4.15447C24.5556 4.11991 24.4808 4.0859 24.4185 4.0508C24.3886 4.03403 24.3572 4.01484 24.3271 3.9922L24.2432 3.9135C23.9723 3.59057 24.0201 3.1076 24.3496 2.84481L24.4484 2.7852C24.4822 2.76909 24.5161 2.75566 24.5485 2.74518C24.6166 2.72313 24.6972 2.70466 24.7863 2.6874Z" stroke="white" stroke-width="0.5" stroke-linejoin="round"/>
</g>
<path d="M52.7022 30.3C51.9822 30.3 51.3902 30.248 50.9262 30.144C50.4622 30.048 50.1022 29.912 49.8462 29.736C49.5902 29.56 49.4102 29.36 49.3062 29.136C49.2102 28.904 49.1622 28.66 49.1622 28.404C49.1622 28.164 49.1982 27.924 49.2702 27.684C49.3502 27.444 49.4862 27.196 49.6782 26.94C49.7902 27.172 49.9742 27.396 50.2302 27.612C50.4862 27.828 50.7742 28.004 51.0942 28.14C51.4222 28.276 51.7422 28.344 52.0542 28.344C52.4702 28.344 52.8142 28.28 53.0862 28.152C53.3662 28.016 53.5662 27.808 53.6862 27.528C52.3262 27.344 51.3062 26.968 50.6262 26.4C49.9462 25.824 49.6062 25.148 49.6062 24.372C49.6062 23.916 49.6982 23.516 49.8822 23.172C50.0742 22.828 50.3262 22.54 50.6382 22.308C50.9502 22.068 51.2902 21.876 51.6582 21.732C52.0262 21.58 52.3902 21.472 52.7502 21.408C53.1102 21.336 53.4302 21.3 53.7102 21.3C54.7262 21.3 55.5062 21.42 56.0502 21.66C56.6022 21.892 56.8782 22.304 56.8782 22.896C56.8782 23.24 56.7982 23.528 56.6382 23.76C56.4862 23.992 56.2822 24.168 56.0262 24.288C55.7782 24.4 55.5062 24.456 55.2102 24.456C54.8582 24.456 54.5142 24.356 54.1782 24.156C53.8422 23.948 53.6062 23.66 53.4702 23.292C53.1902 23.292 52.9142 23.388 52.6422 23.58C52.3702 23.764 52.1942 24.02 52.1142 24.348C53.1782 24.604 54.0342 24.888 54.6822 25.2C55.3382 25.512 55.8142 25.864 56.1102 26.256C56.4062 26.648 56.5542 27.096 56.5542 27.6C56.5542 28.184 56.3822 28.676 56.0382 29.076C55.6942 29.476 55.2302 29.78 54.6462 29.988C54.0702 30.196 53.4222 30.3 52.7022 30.3ZM59.7999 30.3C59.5359 30.3 59.2759 30.26 59.0199 30.18C58.7719 30.1 58.5639 29.96 58.3959 29.76C58.2359 29.56 58.1559 29.284 58.1559 28.932C58.1559 28.932 58.1559 28.84 58.1559 28.656C58.1639 28.472 58.1679 28.236 58.1679 27.948C58.1759 27.66 58.1799 27.356 58.1799 27.036C58.1799 26.708 58.1799 26.396 58.1799 26.1C58.1879 25.804 58.1919 25.564 58.1919 25.38C58.1919 24.836 58.1279 24.404 57.9999 24.084C57.8799 23.756 57.7279 23.5 57.5439 23.316C57.9599 22.972 58.4159 22.8 58.9119 22.8C59.3599 22.8 59.6999 22.932 59.9319 23.196C60.1639 23.452 60.3199 23.804 60.3999 24.252C60.4879 24.7 60.5319 25.2 60.5319 25.752C60.5319 26.048 60.5279 26.384 60.5199 26.76C60.5199 27.128 60.5159 27.496 60.5079 27.864C60.4999 28.224 60.4879 28.548 60.4719 28.836H60.8799C61.1599 28.348 61.4079 27.884 61.6239 27.444C61.8399 27.004 61.9919 26.572 62.0799 26.148C62.0799 25.876 62.0519 25.572 61.9959 25.236C61.9479 24.9 61.8839 24.584 61.8039 24.288C61.7239 23.984 61.6399 23.76 61.5519 23.616C61.6719 23.456 61.8559 23.328 62.1039 23.232C62.3519 23.136 62.6079 23.088 62.8719 23.088C63.0799 23.088 63.2799 23.124 63.4719 23.196C63.6719 23.268 63.8359 23.384 63.9639 23.544C64.0999 23.704 64.1679 23.916 64.1679 24.18C64.1679 24.428 64.1159 24.692 64.0119 24.972C63.9079 25.244 63.7919 25.572 63.6639 25.956L63.6159 28.836H64.0239C64.2079 28.484 64.4039 28.084 64.6119 27.636C64.8199 27.18 65.0159 26.716 65.1999 26.244C65.3919 25.772 65.5479 25.328 65.6679 24.912C65.7879 24.488 65.8479 24.136 65.8479 23.856C65.8479 23.744 65.8359 23.644 65.8119 23.556C65.7959 23.468 65.7719 23.388 65.7399 23.316C66.0199 23.14 66.2959 23.012 66.5679 22.932C66.8399 22.844 67.0879 22.8 67.3119 22.8C67.6639 22.8 67.9159 22.904 68.0679 23.112C68.2199 23.32 68.2959 23.592 68.2959 23.928C68.2959 24.216 68.2319 24.56 68.1039 24.96C67.9839 25.36 67.8319 25.78 67.6479 26.22C67.4639 26.652 67.2799 27.068 67.0959 27.468C66.9119 27.86 66.7639 28.196 66.6519 28.476L66.8199 29.172C66.6999 29.268 66.5239 29.38 66.2919 29.508C66.0599 29.636 65.7959 29.76 65.4999 29.88C65.2119 30 64.9079 30.1 64.5879 30.18C64.2759 30.26 63.9759 30.3 63.6879 30.3C63.3359 30.3 63.0199 30.22 62.7399 30.06C62.4679 29.9 62.2839 29.616 62.1879 29.208C61.8359 29.552 61.4679 29.82 61.0839 30.012C60.7079 30.204 60.2799 30.3 59.7999 30.3ZM71.3178 30.3C70.8698 30.3 70.4738 30.184 70.1298 29.952C69.7938 29.72 69.5338 29.392 69.3498 28.968C69.1658 28.544 69.0738 28.048 69.0738 27.48C69.0738 26.816 69.1898 26.2 69.4218 25.632C69.6618 25.064 69.9898 24.568 70.4058 24.144C70.8298 23.72 71.3258 23.392 71.8938 23.16C72.4618 22.92 73.0778 22.8 73.7418 22.8C73.9338 22.8 74.0978 22.808 74.2338 22.824C74.3778 22.832 74.5298 22.856 74.6898 22.896C74.7378 23.12 74.7658 23.316 74.7738 23.484C74.9578 23.364 75.1618 23.272 75.3858 23.208C75.6098 23.136 75.8178 23.1 76.0098 23.1C76.5938 23.1 76.8858 23.416 76.8858 24.048C76.8858 24.256 76.8458 24.54 76.7658 24.9C76.6938 25.252 76.6058 25.644 76.5018 26.076C76.4058 26.5 76.3178 26.936 76.2378 27.384C76.1658 27.824 76.1298 28.236 76.1298 28.62C76.1298 29.14 76.2538 29.504 76.5018 29.712C76.0538 30.104 75.5778 30.3 75.0738 30.3C74.6098 30.3 74.2658 30.156 74.0418 29.868C73.8258 29.58 73.7178 29.132 73.7178 28.524L73.5978 28.464C73.3818 29.04 73.0698 29.492 72.6618 29.82C72.2618 30.14 71.8138 30.3 71.3178 30.3ZM72.2658 28.116C72.5778 28.116 72.8818 28.004 73.1778 27.78C73.4738 27.556 73.7218 27.248 73.9218 26.856C73.9538 26.544 73.9858 26.252 74.0178 25.98C74.0578 25.7 74.1058 25.404 74.1618 25.092C74.2258 24.78 74.3018 24.412 74.3898 23.988C73.9818 23.988 73.5938 24.068 73.2258 24.228C72.8658 24.38 72.5418 24.592 72.2538 24.864C71.9658 25.136 71.7378 25.448 71.5698 25.8C71.4098 26.144 71.3298 26.508 71.3298 26.892C71.3298 27.284 71.4098 27.588 71.5698 27.804C71.7378 28.012 71.9698 28.116 72.2658 28.116ZM79.4097 32.388C78.8977 32.388 78.5497 32.26 78.3657 32.004C78.1817 31.748 78.0897 31.38 78.0897 30.9C78.0897 30.724 78.1097 30.452 78.1497 30.084C78.1897 29.716 78.2377 29.296 78.2937 28.824C78.3577 28.344 78.4297 27.848 78.5097 27.336C78.5897 26.824 78.6657 26.332 78.7377 25.86C78.8177 25.388 78.8897 24.976 78.9537 24.624L78.2817 23.664C78.7057 23.416 79.1057 23.208 79.4817 23.04C79.8657 22.872 80.2497 22.788 80.6337 22.788C80.9697 22.788 81.1977 22.904 81.3177 23.136C81.4377 23.36 81.4977 23.624 81.4977 23.928C81.4977 24.016 81.4937 24.116 81.4857 24.228C81.4777 24.332 81.4657 24.444 81.4497 24.564L81.5697 24.624C81.8017 24.048 82.1377 23.6 82.5777 23.28C83.0177 22.952 83.5217 22.788 84.0897 22.788C84.5217 22.788 84.8857 22.92 85.1817 23.184C85.4777 23.44 85.7017 23.78 85.8537 24.204C86.0057 24.628 86.0817 25.096 86.0817 25.608C86.0817 26.104 85.9857 26.612 85.7937 27.132C85.6097 27.644 85.3257 28.116 84.9417 28.548C84.5577 28.98 84.0737 29.328 83.4897 29.592C82.9057 29.856 82.2137 29.988 81.4137 29.988C81.2617 29.988 81.1137 29.984 80.9697 29.976C80.8257 29.96 80.6697 29.944 80.5017 29.928C80.4777 30.2 80.4657 30.46 80.4657 30.708C80.4657 30.948 80.4937 31.16 80.5497 31.344C80.6137 31.536 80.7097 31.688 80.8377 31.8C80.3897 32.192 79.9137 32.388 79.4097 32.388ZM80.7177 28.812C81.2377 28.796 81.6937 28.7 82.0857 28.524C82.4857 28.34 82.8217 28.104 83.0937 27.816C83.3657 27.52 83.5697 27.2 83.7057 26.856C83.8417 26.512 83.9097 26.176 83.9097 25.848C83.9097 25.48 83.8377 25.18 83.6937 24.948C83.5497 24.716 83.3337 24.6 83.0457 24.6C82.7497 24.6 82.4697 24.692 82.2057 24.876C81.9497 25.052 81.7177 25.344 81.5097 25.752C81.3097 26.16 81.1377 26.716 80.9937 27.42L80.7177 28.812ZM88.6332 30.3C88.1452 30.3 87.7972 30.172 87.5892 29.916C87.3812 29.66 87.2772 29.292 87.2772 28.812C87.2772 28.644 87.3012 28.388 87.3492 28.044C87.3972 27.692 87.4572 27.304 87.5292 26.88C87.6092 26.448 87.6932 26.016 87.7812 25.584C87.8692 25.152 87.9532 24.768 88.0332 24.432L87.4092 23.472C87.8252 23.288 88.2092 23.132 88.5612 23.004C88.9212 22.868 89.2412 22.8 89.5212 22.8C89.7292 22.8 89.8812 22.872 89.9772 23.016C90.0732 23.16 90.1212 23.344 90.1212 23.568C90.1212 23.824 90.0772 24.112 89.9892 24.432C89.9012 24.744 89.8132 25.04 89.7252 25.32L89.8452 25.38C90.1252 24.556 90.4412 23.92 90.7932 23.472C91.1532 23.024 91.5532 22.8 91.9932 22.8C92.2812 22.8 92.5132 22.864 92.6892 22.992C92.8652 23.112 92.9932 23.264 93.0732 23.448C93.1612 23.624 93.2052 23.796 93.2052 23.964C93.2052 24.228 93.1372 24.484 93.0012 24.732C92.8732 24.972 92.6652 25.172 92.3772 25.332C92.0892 25.484 91.7092 25.56 91.2372 25.56C91.0532 25.56 90.8732 25.6 90.6972 25.68C90.5212 25.76 90.3612 25.912 90.2172 26.136C90.0732 26.352 89.9572 26.66 89.8692 27.06C89.7892 27.46 89.7492 27.98 89.7492 28.62C89.7492 29.116 89.8332 29.48 90.0012 29.712C89.5052 30.104 89.0492 30.3 88.6332 30.3Z" fill="white"/>
<defs>
<filter id="filter0_d_899_4370" x="6.57227" y="1.3833" width="35.9805" height="49.792" filterUnits="userSpaceOnUse" color-interpolation-filters="sRGB">
<feFlood flood-opacity="0" result="BackgroundImageFix"/>
<feColorMatrix in="SourceAlpha" type="matrix" values="0 0 0 0 0 0 0 0 0 0 0 0 0 0 0 0 0 0 127 0" result="hardAlpha"/>
<feOffset dx="1" dy="0.5"/>
<feGaussianBlur stdDeviation="0.25"/>
<feComposite in2="hardAlpha" operator="out"/>
<feColorMatrix type="matrix" values="0 0 0 0 0 0 0 0 0 0 0 0 0 0 0 0 0 0 0.15 0"/>
<feBlend mode="normal" in2="BackgroundImageFix" result="effect1_dropShadow_899_4370"/>
<feBlend mode="normal" in="SourceGraphic" in2="effect1_dropShadow_899_4370" result="shape"/>
</filter>
</defs>
</svg>
