<svg width="155" height="61" viewBox="0 0 155 61" fill="none" xmlns="http://www.w3.org/2000/svg">
<path d="M7.14747 34.895C-3.56754 32.9271 26.655 12.4202 26.655 12.4202L35.5506 5.15834C35.8342 4.92681 35.976 4.81105 36.0496 4.69513C36.256 4.37022 36.2185 3.94718 35.958 3.66374C35.8651 3.56261 35.7051 3.47366 35.3851 3.29574C34.611 2.86533 34.224 2.65012 34.1133 2.49711C33.795 2.05709 33.9651 1.4355 34.4631 1.21884C34.6362 1.1435 35.0789 1.15532 35.9643 1.17896L43.569 1.382C43.9014 1.39088 44.0676 1.39532 44.1985 1.44337C44.4633 1.54058 44.6627 1.76277 44.7308 2.03652C44.7644 2.17186 44.7509 2.33756 44.7238 2.66896L44.7238 2.669L44.1009 10.3022C44.033 11.1346 43.999 11.5507 43.8792 11.7325C43.6329 12.1063 43.139 12.2251 42.7496 12.0043C42.5602 11.8969 42.3407 11.5417 41.9016 10.8314L41.5399 10.2463C41.3692 9.97017 41.2839 9.83214 41.1775 9.74357C40.9636 9.5654 40.6717 9.50301 40.4037 9.57818C40.2704 9.61554 40.1427 9.70219 39.8872 9.8755C34.651 13.4273 11.1977 29.6266 23.605 26.5654C37.5226 23.1315 50.0654 22.7836 50.088 32.5633C50.1265 49.2059 19.5304 55.2979 10.9948 56.6736C10.4536 56.7608 10.183 56.8044 10.0346 56.899C9.70125 57.1117 9.56077 57.5047 9.68379 57.8805C9.73853 58.0478 9.92147 58.2545 10.2873 58.668C10.736 59.175 10.9603 59.4285 11.0126 59.6187C11.1288 60.0408 10.9056 60.4821 10.4967 60.6386C10.3125 60.7091 9.9754 60.6786 9.30115 60.6176L1.40816 59.9033L1.40812 59.9033C1.07583 59.8733 0.909674 59.8582 0.781804 59.8017C0.523149 59.6874 0.338235 59.452 0.288435 59.1736C0.263814 59.036 0.288557 58.871 0.338043 58.541L1.41516 51.3585C1.50684 50.7471 1.55268 50.4415 1.66408 50.2796C1.89191 49.9487 2.32028 49.8224 2.69124 49.9767C2.87262 50.0522 3.07699 50.284 3.48573 50.7478L4.64806 52.0665C4.76235 52.1962 4.8195 52.261 4.88594 52.3118C5.01779 52.4125 5.18196 52.474 5.34753 52.4846C5.43096 52.49 5.50878 52.4797 5.66441 52.4591L5.66447 52.4591C10.877 51.7686 47.999 46.4142 40.9512 34.8168C35.2936 25.5068 17.8625 36.8628 7.14747 34.895Z" fill="white"/>
<path d="M34.9448 1.05546C35.1905 1.05191 35.5256 1.06083 35.9673 1.07262L43.5723 1.27574L43.9678 1.2924C44.0743 1.30133 44.1597 1.31572 44.2355 1.34354L44.343 1.39114C44.5867 1.51644 44.7667 1.74158 44.8337 2.0111L44.8535 2.13606C44.8638 2.26819 44.8497 2.43155 44.8304 2.66834L44.8304 2.67811L44.7239 2.66859L44.8294 2.67811L44.2064 10.3104C44.1726 10.725 44.1473 11.041 44.1149 11.2755C44.0911 11.4477 44.0624 11.5878 44.0182 11.6947L43.9677 11.7915C43.7079 12.1852 43.2037 12.3271 42.781 12.1389L42.6969 12.0971C42.579 12.0302 42.4647 11.8947 42.3317 11.7044C42.264 11.6075 42.1882 11.492 42.1024 11.3563L41.8113 10.8873L41.4496 10.3022C41.3184 10.0899 41.2433 9.9699 41.1762 9.89165L41.1096 9.8254C40.946 9.68913 40.7298 9.63035 40.5213 9.66172L40.4325 9.68048C40.3762 9.69627 40.3199 9.7222 40.2452 9.76685L39.9468 9.96383C37.3284 11.7399 30.1598 16.6747 25.1974 20.7821C23.957 21.8088 22.856 22.7824 21.9989 23.6411C21.139 24.5027 20.5338 25.2399 20.2744 25.7935C20.1442 26.0714 20.1105 26.2844 20.1538 26.4374C20.1945 26.581 20.3123 26.6985 20.5579 26.7704C20.8067 26.8432 21.1722 26.8638 21.6752 26.8157C22.1767 26.7677 22.8071 26.6523 23.5797 26.4617L24.8807 26.1491C31.363 24.6322 37.4789 23.8389 42.0723 24.5039C44.5229 24.8587 46.5513 25.6305 47.9695 26.9395C49.391 28.2515 50.1887 30.0934 50.1944 32.5632C50.2041 36.7599 48.2814 40.2869 45.2708 43.2338C42.2616 46.1795 38.1607 48.5508 33.7992 50.441C25.6212 53.9853 16.5027 55.849 11.876 56.6353L11.012 56.7789C10.7402 56.8227 10.5405 56.8549 10.3902 56.8878C10.3144 56.9044 10.2542 56.9204 10.2058 56.937L10.0916 56.9891C9.79943 57.1756 9.67724 57.5176 9.78502 57.8472L9.83997 57.9603C9.86704 58.004 9.9042 58.0551 9.95263 58.1163C10.0487 58.2377 10.1833 58.3903 10.3668 58.5978L10.6625 58.934C10.7483 59.033 10.8214 59.1195 10.8819 59.1962C11.0012 59.3475 11.0829 59.4729 11.1152 59.5902L11.135 59.68C11.208 60.0964 10.9975 60.5128 10.6188 60.7007L10.5349 60.738C10.4211 60.7816 10.2715 60.7905 10.0789 60.784C9.9813 60.7807 9.86845 60.7728 9.73805 60.7623L9.29167 60.7233L1.40816 60.0091L1.40816 60.0101L1.39839 60.0101L1.39839 60.0092C1.15608 59.9872 0.989584 59.9733 0.859169 59.9401L0.738957 59.8994C0.484514 59.7869 0.293618 59.5698 0.212197 59.3078L0.18361 59.1926C0.155138 59.0335 0.184688 58.8467 0.232849 58.5255L1.30999 51.3424L1.37253 50.9379C1.39168 50.8195 1.40961 50.7167 1.42846 50.6282C1.46577 50.453 1.50867 50.3188 1.57693 50.2197L1.68307 50.0905C1.95274 49.8165 2.36737 49.7262 2.73239 49.8781L2.8155 49.9209C2.89895 49.9716 2.98381 50.0467 3.0787 50.142C3.20635 50.2702 3.36198 50.4473 3.5653 50.678L4.72753 51.9966L4.86166 52.1457C4.89569 52.1815 4.9226 52.206 4.95072 52.2275L5.04168 52.2868C5.13759 52.3396 5.2459 52.3719 5.35439 52.3789L5.46962 52.3757C5.51481 52.3716 5.571 52.3643 5.65023 52.3538L6.98282 52.1691C10.8762 51.6095 19.9625 50.1392 27.8737 47.6266C32.3967 46.1901 36.5225 44.4168 39.0763 42.2872C40.3523 41.223 41.2275 40.0769 41.5703 38.8478C41.8906 37.6992 41.7493 36.4653 41.0148 35.1382L40.8609 34.8719C39.4678 32.5796 37.3513 31.5562 34.7783 31.2835C32.1997 31.0101 29.17 31.4918 25.9689 32.2062C22.7775 32.9184 19.4024 33.866 16.1744 34.5081C13.1443 35.1109 10.2175 35.4507 7.63959 35.0826L7.12866 34.9998C5.77324 34.7508 5.02141 34.1998 4.80657 33.3918C4.59567 32.5982 4.9183 31.6022 5.58407 30.4984C6.92025 28.2832 9.70541 25.5254 12.8134 22.8391C15.9244 20.1503 19.3699 17.5238 22.0369 15.5697C23.3706 14.5926 24.5106 13.7833 25.3166 13.2184C25.7193 12.9362 26.0386 12.7147 26.2575 12.5639C26.367 12.4884 26.4521 12.4303 26.509 12.3914C26.5374 12.372 26.5589 12.3572 26.5734 12.3473C26.5807 12.3424 26.5863 12.338 26.59 12.3355L26.5909 12.3346L35.4834 5.0757L35.8079 4.80445C35.8855 4.73437 35.9308 4.6839 35.9599 4.63808L36.0173 4.52759C36.1128 4.30085 36.09 4.04077 35.9561 3.83437L35.8797 3.73592C35.8429 3.69592 35.7894 3.65401 35.7006 3.59864L35.334 3.38855C34.9478 3.17383 34.6548 3.01094 34.4451 2.88279C34.3402 2.81869 34.2539 2.76201 34.1859 2.71053C34.1524 2.6852 34.1215 2.66062 34.0949 2.63555L34.0273 2.55953C33.6692 2.06452 33.8603 1.36488 34.4205 1.12112L34.5181 1.09062C34.5537 1.08263 34.5927 1.07656 34.6343 1.0718C34.7189 1.06212 34.822 1.05723 34.9448 1.05546Z" stroke="black" stroke-opacity="0.5" stroke-width="0.212603" stroke-linejoin="round"/>
<path d="M57.1796 24.6278C56.631 24.6276 56.18 24.5879 55.8265 24.5086C55.473 24.4353 55.1987 24.3317 55.0037 24.1975C54.8087 24.0634 54.6716 23.9109 54.5924 23.7403C54.5193 23.5635 54.4828 23.3776 54.4828 23.1825C54.4829 22.9997 54.5103 22.8168 54.5652 22.634C54.6262 22.4511 54.7299 22.2622 54.8762 22.0672C54.9615 22.244 55.1017 22.4147 55.2967 22.5793C55.4917 22.7439 55.7111 22.8781 55.9549 22.9817C56.2047 23.0854 56.4485 23.1373 56.6862 23.1374C57.0032 23.1374 57.2653 23.0887 57.4726 22.9913C57.6859 22.8877 57.8384 22.7293 57.9298 22.516C56.8937 22.3755 56.1166 22.0888 55.5986 21.6559C55.0806 21.217 54.8217 20.7018 54.8219 20.1106C54.822 19.7632 54.8921 19.4584 55.0324 19.1964C55.1787 18.9343 55.3708 18.7149 55.6086 18.5382C55.8463 18.3554 56.1054 18.2092 56.3858 18.0996C56.6662 17.9838 56.9436 17.9016 57.2179 17.8529C57.4922 17.7981 57.736 17.7708 57.9493 17.7708C58.7234 17.771 59.3177 17.8626 59.7321 18.0456C60.1526 18.2224 60.3628 18.5364 60.3627 18.9874C60.3627 19.2495 60.3017 19.4689 60.1797 19.6457C60.0638 19.8224 59.9084 19.9565 59.7133 20.0478C59.5243 20.1331 59.3171 20.1757 59.0916 20.1757C58.8234 20.1756 58.5613 20.0994 58.3053 19.9469C58.0494 19.7884 57.8696 19.5689 57.7661 19.2885C57.5527 19.2884 57.3424 19.3615 57.1352 19.5078C56.9279 19.6479 56.7937 19.8429 56.7327 20.0928C57.5433 20.2881 58.1955 20.5046 58.6891 20.7424C59.1889 20.9803 59.5515 21.2486 59.7769 21.5473C60.0024 21.846 60.1151 22.1874 60.115 22.5714C60.1148 23.0163 59.9837 23.3912 59.7215 23.6958C59.4594 24.0005 59.1058 24.2321 58.6608 24.3904C58.2219 24.5488 57.7282 24.6279 57.1796 24.6278ZM62.5874 24.6291C62.3862 24.6291 62.1881 24.5986 61.9931 24.5376C61.8042 24.4766 61.6457 24.3699 61.5178 24.2174C61.3959 24.065 61.335 23.8547 61.3351 23.5865C61.3351 23.5865 61.3351 23.5164 61.3351 23.3763C61.3412 23.2361 61.3443 23.0563 61.3444 22.8368C61.3505 22.6174 61.3537 22.3858 61.3537 22.142C61.3538 21.8921 61.3538 21.6544 61.3539 21.4288C61.36 21.2033 61.3631 21.0205 61.3632 20.8803C61.3633 20.4658 61.3146 20.1366 61.2171 19.8928C61.1258 19.6429 61.01 19.4478 60.8699 19.3076C61.1869 19.0456 61.5343 18.9146 61.9122 18.9147C62.2536 18.9148 62.5126 19.0154 62.6893 19.2166C62.866 19.4117 62.9848 19.6799 63.0457 20.0213C63.1126 20.3626 63.1461 20.7436 63.146 21.1641C63.1459 21.3897 63.1428 21.6457 63.1366 21.9321C63.1366 22.2125 63.1334 22.4929 63.1273 22.7733C63.1211 23.0476 63.1119 23.2944 63.0997 23.5138L63.4105 23.5139C63.6239 23.1422 63.813 22.7887 63.9776 22.4535C64.1423 22.1183 64.2582 21.7892 64.3253 21.4662C64.3254 21.2589 64.3041 21.0273 64.2615 20.7713C64.225 20.5153 64.1763 20.2745 64.1154 20.049C64.0545 19.8173 63.9905 19.6466 63.9235 19.5369C64.015 19.415 64.1552 19.3175 64.3442 19.2444C64.5331 19.1714 64.7282 19.1348 64.9293 19.1349C65.0878 19.1349 65.2402 19.1624 65.3865 19.2173C65.5388 19.2722 65.6638 19.3606 65.7612 19.4825C65.8648 19.6045 65.9166 19.766 65.9165 19.9671C65.9165 20.1561 65.8768 20.3572 65.7975 20.5705C65.7182 20.7777 65.6298 21.0276 65.5322 21.3202L65.4951 23.5145L65.8059 23.5145C65.9462 23.2464 66.0956 22.9417 66.2542 22.6004C66.4127 22.253 66.5622 21.8995 66.7024 21.5399C66.8488 21.1803 66.9678 20.8421 67.0593 20.5251C67.1508 20.2021 67.1966 19.9339 67.1966 19.7206C67.1966 19.6353 67.1875 19.5591 67.1692 19.492C67.1571 19.425 67.1388 19.364 67.1144 19.3091C67.3278 19.1751 67.5381 19.0776 67.7454 19.0167C67.9526 18.9497 68.1416 18.9163 68.3122 18.9163C68.5804 18.9164 68.7724 18.9957 68.8882 19.1542C69.004 19.3127 69.0618 19.5199 69.0617 19.7759C69.0617 19.9954 69.0129 20.2574 68.9153 20.5622C68.8238 20.8669 68.7079 21.1869 68.5676 21.5221C68.4273 21.8512 68.287 22.1681 68.1468 22.4728C68.0065 22.7715 67.8937 23.0274 67.8083 23.2408L67.9362 23.7711C67.8447 23.8442 67.7106 23.9295 67.5338 24.027C67.357 24.1244 67.1559 24.2189 66.9303 24.3102C66.7109 24.4016 66.4792 24.4777 66.2354 24.5386C65.9977 24.5995 65.7691 24.63 65.5497 24.6299C65.2815 24.6298 65.0407 24.5688 64.8274 24.4469C64.6202 24.3249 64.4801 24.1085 64.407 23.7976C64.1388 24.0596 63.8583 24.2638 63.5657 24.41C63.2792 24.5562 62.9531 24.6292 62.5874 24.6291ZM71.3629 24.6314C71.0215 24.6313 70.7198 24.5428 70.4578 24.366C70.2018 24.1892 70.0038 23.9392 69.8637 23.6161C69.7236 23.293 69.6536 22.9151 69.6537 22.4824C69.6538 21.9765 69.7423 21.5071 69.9192 21.0744C70.1022 20.6417 70.3522 20.2639 70.6692 19.9409C70.9923 19.6179 71.3703 19.3681 71.8031 19.1915C72.2359 19.0087 72.7053 18.9174 73.2112 18.9176C73.3575 18.9176 73.4824 18.9237 73.586 18.9359C73.6957 18.9421 73.8115 18.9604 73.9334 18.9909C73.97 19.1616 73.9913 19.3109 73.9973 19.4389C74.1375 19.3475 74.293 19.2774 74.4637 19.2287C74.6343 19.1739 74.7928 19.1465 74.9391 19.1466C75.3841 19.1467 75.6065 19.3875 75.6064 19.869C75.6063 20.0275 75.5758 20.2439 75.5148 20.5181C75.4598 20.7863 75.3927 21.085 75.3134 21.4141C75.2402 21.7371 75.173 22.0693 75.112 22.4106C75.0571 22.7458 75.0296 23.0597 75.0295 23.3523C75.0294 23.7485 75.1238 24.0258 75.3127 24.1844C74.9713 24.4829 74.6086 24.6322 74.2246 24.6321C73.8711 24.632 73.609 24.5222 73.4384 24.3028C73.2739 24.0833 73.1917 23.7419 73.1918 23.2787L73.1004 23.233C72.9357 23.6718 72.6979 24.0161 72.387 24.2659C72.0821 24.5096 71.7408 24.6315 71.3629 24.6314ZM72.0856 22.9676C72.3233 22.9676 72.5549 22.8823 72.7805 22.7117C73.0061 22.5411 73.1951 22.3065 73.3475 22.0079C73.372 21.7702 73.3964 21.5477 73.4208 21.3405C73.4514 21.1271 73.488 20.9016 73.5307 20.6639C73.5796 20.4262 73.6375 20.1458 73.7047 19.8228C73.3938 19.8227 73.0982 19.8836 72.8178 20.0055C72.5434 20.1212 72.2965 20.2827 72.0771 20.4898C71.8576 20.697 71.6838 20.9347 71.5557 21.2028C71.4338 21.4649 71.3727 21.7422 71.3727 22.0348C71.3726 22.3335 71.4335 22.5651 71.5553 22.7297C71.6833 22.8882 71.8601 22.9675 72.0856 22.9676ZM77.5277 26.2238C77.1377 26.2237 76.8725 26.1261 76.7324 25.931C76.5923 25.7359 76.5222 25.4555 76.5223 25.0898C76.5224 24.9557 76.5376 24.7485 76.5682 24.4681C76.5987 24.1877 76.6354 23.8678 76.6782 23.5081C76.727 23.1424 76.782 22.7646 76.843 22.3745C76.9041 21.9844 76.9621 21.6095 77.017 21.2499C77.0781 20.8903 77.133 20.5764 77.1818 20.3083L76.67 19.5767C76.9931 19.3878 77.2979 19.2294 77.5844 19.1015C77.877 18.9736 78.1696 18.9097 78.4622 18.9097C78.7182 18.9098 78.8919 18.9982 78.9832 19.175C79.0746 19.3457 79.1203 19.5469 79.1202 19.7785C79.1202 19.8455 79.1172 19.9217 79.111 20.007C79.1049 20.0863 79.0958 20.1716 79.0835 20.263L79.175 20.3088C79.3518 19.87 79.6079 19.5287 79.9432 19.285C80.2785 19.0352 80.6626 18.9103 81.0953 18.9104C81.4245 18.9105 81.7018 19.0111 81.9272 19.2123C82.1527 19.4074 82.3233 19.6665 82.439 19.9896C82.5548 20.3127 82.6126 20.6693 82.6125 21.0594C82.6124 21.4373 82.5391 21.8243 82.3928 22.2204C82.2525 22.6105 82.036 22.9701 81.7433 23.2991C81.4507 23.6282 81.0819 23.8933 80.6369 24.0943C80.1919 24.2953 79.6646 24.3958 79.0551 24.3956C78.9393 24.3956 78.8265 24.3925 78.7168 24.3864C78.6071 24.3742 78.4882 24.3619 78.3602 24.3497C78.3419 24.5569 78.3327 24.755 78.3326 24.944C78.3326 25.1268 78.3539 25.2884 78.3965 25.4286C78.4452 25.5749 78.5184 25.6907 78.6159 25.7761C78.2745 26.0746 77.9117 26.2239 77.5277 26.2238ZM78.525 23.4995C78.9212 23.4874 79.2687 23.4143 79.5674 23.2803C79.8721 23.1402 80.1282 22.9604 80.3355 22.7411C80.5428 22.5156 80.6983 22.2718 80.802 22.0098C80.9056 21.7477 80.9575 21.4917 80.9576 21.2418C80.9577 20.9614 80.9029 20.7328 80.7932 20.556C80.6835 20.3793 80.519 20.2908 80.2995 20.2908C80.074 20.2907 79.8607 20.3608 79.6595 20.5009C79.4644 20.6349 79.2876 20.8574 79.129 21.1682C78.9766 21.479 78.8454 21.9026 78.7356 22.439L78.525 23.4995ZM84.5556 24.6347C84.1838 24.6346 83.9187 24.537 83.7602 24.3419C83.6018 24.1469 83.5226 23.8664 83.5227 23.5007C83.5228 23.3727 83.5411 23.1777 83.5777 22.9156C83.6144 22.6474 83.6602 22.3518 83.7151 22.0288C83.7761 21.6997 83.8402 21.3705 83.9073 21.0414C83.9745 20.7123 84.0386 20.4197 84.0996 20.1637L83.6243 19.4322C83.9413 19.2921 84.2339 19.1733 84.5021 19.0758C84.7764 18.9723 85.0203 18.9205 85.2336 18.9206C85.3921 18.9206 85.5079 18.9755 85.581 19.0853C85.6541 19.195 85.6906 19.3352 85.6906 19.5059C85.6905 19.7009 85.657 19.9203 85.5899 20.1641C85.5227 20.4018 85.4556 20.6273 85.3885 20.8406L85.48 20.8864C85.6935 20.2586 85.9343 19.7741 86.2026 19.4328C86.477 19.0916 86.7818 18.921 87.117 18.9211C87.3365 18.9211 87.5132 18.9699 87.6473 19.0675C87.7813 19.159 87.8788 19.2748 87.9398 19.415C88.0068 19.5491 88.0403 19.6802 88.0402 19.8082C88.0402 20.0093 87.9883 20.2043 87.8847 20.3933C87.7871 20.5761 87.6286 20.7284 87.4091 20.8503C87.1897 20.966 86.9001 21.0239 86.5405 21.0238C86.4003 21.0238 86.2632 21.0542 86.129 21.1151C85.9949 21.176 85.873 21.2918 85.7632 21.4624C85.6535 21.627 85.565 21.8616 85.4979 22.1664C85.4369 22.4711 85.4063 22.8673 85.4062 23.3549C85.4061 23.7328 85.47 24.0102 85.598 24.187C85.22 24.4855 84.8725 24.6348 84.5556 24.6347Z" fill="white"/>
<path d="M56.5995 40.7707C55.9961 40.7705 55.5207 40.6881 55.1733 40.5235C54.8259 40.3588 54.6522 40.1302 54.6523 39.8376C54.6523 39.7157 54.6889 39.5999 54.7621 39.4902C54.8353 39.3805 54.9389 39.2891 55.073 39.216C55.2253 39.5208 55.4295 39.7555 55.6854 39.9202C55.9414 40.0787 56.2248 40.158 56.5356 40.1581C56.9745 40.1582 57.328 40.076 57.5963 39.9115C57.8645 39.747 57.9987 39.5093 57.9987 39.1985C57.9988 39.0095 57.8983 38.8571 57.6971 38.7413C57.5021 38.6254 57.2004 38.4973 56.7921 38.357C56.4142 38.2289 56.1034 38.1069 55.8596 37.9911C55.6158 37.8752 55.4086 37.7197 55.238 37.5246C55.0674 37.3234 54.9821 37.0766 54.9822 36.784C54.9823 36.4488 55.0982 36.1501 55.3299 35.8881C55.5616 35.626 55.8816 35.4219 56.29 35.2758C56.7045 35.1296 57.18 35.0566 57.7164 35.0567C58.204 35.0568 58.6032 35.1301 58.914 35.2764C59.2309 35.4228 59.3894 35.6087 59.3893 35.8343C59.3893 36.0537 59.3161 36.2243 59.1698 36.3462C59.0234 36.462 58.8314 36.5198 58.5937 36.5198C58.3621 36.5197 58.164 36.4465 57.9995 36.3002C57.8349 36.1539 57.71 35.9405 57.6248 35.6601C57.125 35.7148 56.7318 35.8336 56.4453 36.0164C56.1648 36.1931 56.0246 36.4094 56.0245 36.6654C56.0245 36.7934 56.0732 36.9031 56.1707 36.9946C56.2743 37.086 56.4023 37.1653 56.5547 37.2324C56.707 37.2934 56.9234 37.3727 57.2038 37.4703C57.5938 37.6045 57.9077 37.7295 58.1454 37.8454C58.3892 37.9612 58.5964 38.1198 58.767 38.321C58.9437 38.516 59.032 38.7629 59.0319 39.0616C59.0318 39.3846 58.9342 39.6772 58.7391 39.9392C58.544 40.1952 58.2605 40.3963 57.8887 40.5424C57.5229 40.6947 57.0932 40.7708 56.5995 40.7707ZM61.7484 40.772C61.5717 40.772 61.4376 40.7353 61.3462 40.6622C61.2547 40.5951 61.1877 40.4823 61.1451 40.3238C61.1086 40.1593 61.0903 39.9246 61.0904 39.6198C61.0905 39.2968 61.0936 39.053 61.0998 38.8884C61.106 38.2179 61.1001 37.6876 61.0819 37.2975C61.0637 36.9074 61.012 36.5326 60.9267 36.1729C60.8415 35.8133 60.7014 35.5176 60.5064 35.286C60.7015 35.1336 60.9179 35.0575 61.1556 35.0576C61.4116 35.0576 61.6066 35.1461 61.7407 35.3229C61.8808 35.4997 61.9783 35.7892 62.033 36.1915C62.0878 36.5877 62.115 37.1515 62.1149 37.8829L62.1146 39.0349C62.1144 39.5652 62.1113 39.8822 62.1052 39.9858L62.1966 39.9858C62.8246 39.1997 63.285 38.4775 63.5777 37.8193C63.8705 37.155 64.0535 36.6431 64.1267 36.2835C64.1328 36.2713 64.1358 36.2621 64.1358 36.256C64.1359 36.2438 64.1359 36.2347 64.1359 36.2286C64.1359 36.1677 64.1115 36.0945 64.0628 36.0092C64.014 35.9177 63.9653 35.8324 63.9165 35.7531C63.8556 35.6739 63.816 35.6099 63.7977 35.5611C63.9136 35.4758 64.0142 35.4179 64.0995 35.3875C64.1909 35.3509 64.2854 35.3326 64.3829 35.3327C64.5597 35.3327 64.6968 35.3907 64.7943 35.5065C64.8979 35.6223 64.9497 35.7839 64.9496 35.9911C64.9496 36.2654 64.8824 36.5671 64.7483 36.8962C64.6141 37.2192 64.3854 37.6732 64.0622 38.2583C64.0317 38.3071 64.0012 38.3589 63.9707 38.4137C63.9402 38.4686 63.9097 38.5265 63.8793 38.5874C63.55 39.1786 63.2695 39.6295 63.0378 39.9403C62.8061 40.2511 62.5896 40.4674 62.3885 40.5893C62.1934 40.7112 61.98 40.7721 61.7484 40.772ZM64.9118 40.7728C64.6924 40.7727 64.5218 40.7209 64.3999 40.6172C64.278 40.5136 64.1897 40.3734 64.1348 40.1966C64.0861 40.0137 64.0527 39.7791 64.0345 39.4926L63.752 35.5702C63.8252 35.491 63.9166 35.4331 64.0264 35.3966C64.1361 35.3539 64.2549 35.3326 64.3829 35.3327L64.6205 35.8813L64.7658 39.9865L64.8572 39.9865C65.4731 38.9748 65.9213 38.1491 66.2018 37.5091C66.4885 36.8631 66.6318 36.3755 66.6319 36.0464C66.632 35.7477 66.5711 35.4947 66.4492 35.2875C66.6016 35.2022 66.7297 35.1443 66.8333 35.1139C66.943 35.0773 67.0588 35.0591 67.1807 35.0591C67.3392 35.0591 67.4611 35.1201 67.5464 35.242C67.6378 35.364 67.6835 35.5286 67.6834 35.7358C67.6833 35.9796 67.6132 36.3026 67.4729 36.7049C67.3387 37.101 67.1313 37.5825 66.8508 38.1493C66.5703 38.7161 66.2166 39.3682 65.7897 40.1056L65.9359 40.3799C65.8262 40.4957 65.6738 40.5901 65.4787 40.6632C65.2837 40.7363 65.0947 40.7728 64.9118 40.7728ZM70.5261 40.7742C70.197 40.7741 69.9044 40.6857 69.6485 40.5089C69.3986 40.332 69.2036 40.0821 69.0635 39.759C68.9295 39.4298 68.8626 39.0519 68.8627 38.6252C68.8628 37.9669 69.0184 37.3666 69.3294 36.8242C69.6404 36.2757 70.0641 35.8461 70.6006 35.5354C71.1371 35.2186 71.7283 35.0602 72.3744 35.0604C72.6548 35.0605 72.9413 35.0849 73.2338 35.1338C73.307 35.2618 73.3435 35.405 73.3435 35.5635C72.6547 35.5633 72.0573 35.6942 71.5514 35.9562C71.0454 36.2182 70.6582 36.5807 70.3899 37.0439C70.1216 37.501 69.9874 38.019 69.9873 38.5981C69.9871 39.0126 70.0724 39.3356 70.243 39.5673C70.4136 39.799 70.6543 39.9148 70.9652 39.9149C71.5321 39.915 71.9984 39.5555 72.3643 38.8364C72.7302 38.1112 73.0048 37.0202 73.188 35.5635C73.2551 35.4782 73.3404 35.4111 73.4441 35.3624C73.5538 35.3137 73.6635 35.2893 73.7732 35.2893C73.9256 35.2894 74.0445 35.326 74.1298 35.3991C74.2212 35.4723 74.2669 35.5729 74.2668 35.7009C74.2668 35.8411 74.2454 36.0087 74.2027 36.2037C74.1661 36.3988 74.102 36.6852 74.0105 37.0631C73.8641 37.6787 73.7512 38.212 73.6718 38.663C73.5925 39.114 73.5527 39.5742 73.5526 40.0436C73.5525 40.2569 73.6074 40.4154 73.7171 40.519C73.5281 40.6897 73.3238 40.7749 73.1044 40.7749C72.8972 40.7748 72.7387 40.7108 72.629 40.5828C72.5194 40.4547 72.4645 40.2688 72.4646 40.025C72.4646 39.8909 72.486 39.7081 72.5287 39.4764L72.4373 39.4307C72.2178 39.8573 71.9404 40.1894 71.6051 40.4271C71.2759 40.6586 70.9162 40.7743 70.5261 40.7742ZM77.85 40.5475C77.5453 40.5474 77.2558 40.523 76.9815 40.4741C76.9084 40.3461 76.8718 40.2029 76.8719 40.0444C77.5424 40.0446 78.1306 39.9289 78.6365 39.6974C79.1486 39.4598 79.5418 39.1308 79.8162 38.7103C80.0967 38.2837 80.237 37.7931 80.2372 37.2384C80.2373 36.8239 80.149 36.5009 79.9723 36.2692C79.8017 36.0375 79.5609 35.9217 79.2501 35.9216C78.9392 35.9215 78.6497 36.0677 78.3814 36.3602C78.1192 36.6466 77.8814 37.0702 77.6679 37.6309C77.4545 38.1855 77.2623 38.8712 77.0914 39.6879L77.3117 36.2045L77.7871 36.5521C78.0005 36.0767 78.2749 35.711 78.6102 35.4551C78.9455 35.1931 79.3051 35.0622 79.6891 35.0623C80.0183 35.0623 80.3078 35.1508 80.5577 35.3276C80.8136 35.5044 81.0086 35.7575 81.1426 36.0866C81.2827 36.4097 81.3527 36.7846 81.3526 37.2113C81.3524 37.8269 81.1969 38.3906 80.8859 38.9026C80.581 39.4084 80.1603 39.8106 79.6239 40.1091C79.0874 40.4015 78.4961 40.5477 77.85 40.5475ZM76.4599 42.3757C76.2709 42.3757 76.1277 42.3116 76.0302 42.1836C75.9327 42.0617 75.884 41.8727 75.8841 41.6167C75.8841 41.379 75.9666 40.7055 76.1314 39.5962C76.3024 38.4808 76.5099 37.2527 76.7541 35.9118L76.3519 35.4546C76.4982 35.3388 76.6689 35.2444 76.864 35.1713C77.059 35.0982 77.2389 35.0616 77.4034 35.0617C77.5741 35.0617 77.696 35.1014 77.7691 35.1806C77.8422 35.2538 77.8788 35.3818 77.8787 35.5647C77.8787 35.6866 77.8573 35.8542 77.8146 36.0675C77.778 36.2747 77.7139 36.5734 77.6224 36.9635C77.4149 37.8655 77.2501 38.6761 77.1281 39.3953C77.0121 40.1084 76.954 40.8338 76.9538 41.5713C76.9538 41.6871 76.972 41.7938 77.0086 41.8913C77.0451 41.9949 77.0908 42.0711 77.1456 42.1199C77.0542 42.2052 76.9506 42.2692 76.8347 42.3118C76.7189 42.3545 76.594 42.3758 76.4599 42.3757ZM86.2502 40.7782C86.0673 40.7782 85.9119 40.7172 85.784 40.5952C85.6621 40.4733 85.6012 40.3239 85.6012 40.1472C85.6013 40.0131 85.6318 39.8881 85.6927 39.7724C85.7598 39.6505 85.8513 39.556 85.9671 39.489C86.0829 39.4159 86.214 39.3793 86.3603 39.3794C86.5492 39.3794 86.7046 39.4404 86.8265 39.5624C86.9484 39.6843 87.0093 39.8336 87.0093 40.0104C87.0092 40.1445 86.9757 40.2725 86.9086 40.3944C86.8415 40.5102 86.747 40.6016 86.6251 40.6686C86.5093 40.7417 86.3843 40.7782 86.2502 40.7782ZM93.0191 40.7799C92.4157 40.7798 91.9403 40.6974 91.5929 40.5327C91.2455 40.368 91.0719 40.1394 91.0719 39.8469C91.072 39.725 91.1086 39.6092 91.1817 39.4995C91.2549 39.3898 91.3585 39.2984 91.4927 39.2253C91.645 39.5301 91.8491 39.7648 92.1051 39.9294C92.361 40.0879 92.6444 40.1673 92.9553 40.1673C93.3941 40.1674 93.7477 40.0853 94.0159 39.9207C94.2841 39.7562 94.4183 39.5186 94.4184 39.2077C94.4184 39.0188 94.3179 38.8663 94.1168 38.7505C93.9218 38.6346 93.6201 38.5066 93.2117 38.3663C92.8339 38.2382 92.523 38.1162 92.2793 38.0003C92.0355 37.8844 91.8283 37.729 91.6577 37.5339C91.487 37.3327 91.4018 37.0858 91.4019 36.7932C91.4019 36.458 91.5178 36.1594 91.7495 35.8973C91.9812 35.6353 92.3012 35.4312 92.7097 35.285C93.1242 35.1388 93.5996 35.0658 94.136 35.0659C94.6236 35.066 95.0228 35.1393 95.3337 35.2857C95.6506 35.432 95.809 35.618 95.8089 35.8435C95.8089 36.0629 95.7357 36.2336 95.5894 36.3554C95.4431 36.4712 95.2511 36.5291 95.0133 36.529C94.7817 36.5289 94.5837 36.4557 94.4191 36.3094C94.2546 36.1631 94.1297 35.9497 94.0444 35.6693C93.5446 35.7241 93.1514 35.8428 92.8649 36.0256C92.5845 36.2023 92.4442 36.4186 92.4442 36.6746C92.4441 36.8026 92.4929 36.9124 92.5904 37.0038C92.694 37.0953 92.8219 37.1745 92.9743 37.2416C93.1267 37.3026 93.343 37.3819 93.6234 37.4795C94.0135 37.6137 94.3273 37.7387 94.565 37.8546C94.8088 37.9705 95.016 38.129 95.1866 38.3302C95.3633 38.5253 95.4516 38.7722 95.4516 39.0708C95.4515 39.3939 95.3539 39.6864 95.1588 39.9485C94.9637 40.2044 94.6802 40.4055 94.3083 40.5517C93.9426 40.704 93.5128 40.78 93.0191 40.7799ZM97.6103 40.7811C97.397 40.781 97.2385 40.7261 97.135 40.6164C97.0314 40.5067 96.9796 40.3451 96.9796 40.1318C96.9797 39.9185 97.0316 39.5192 97.1354 38.9341C97.2391 38.3429 97.4131 37.4165 97.6572 36.1548C97.7183 35.8501 97.7793 35.5453 97.8403 35.2406C97.9013 34.9297 97.9593 34.6219 98.0143 34.3172L97.6121 33.8599C97.7523 33.7381 97.92 33.6436 98.115 33.5766C98.3162 33.5036 98.4991 33.467 98.6636 33.4671C98.8343 33.4671 98.9562 33.5068 99.0293 33.586C99.1024 33.6592 99.139 33.7872 99.1389 33.97C99.1389 34.0859 99.1206 34.2382 99.084 34.4272C99.0473 34.61 98.9863 34.8721 98.9009 35.2134C98.7362 35.8778 98.6172 36.3928 98.5439 36.7585L98.6353 36.8042C98.9707 36.2009 99.3579 35.7621 99.7968 35.4879C100.236 35.2077 100.678 35.0676 101.123 35.0677C101.513 35.0678 101.805 35.1684 102 35.3696C102.195 35.5647 102.293 35.8695 102.293 36.284C102.293 36.5278 102.265 36.7807 102.21 37.0428C102.161 37.3049 102.088 37.634 101.99 38.0302C101.875 38.4934 101.789 38.8743 101.734 39.173C101.679 39.4655 101.652 39.7581 101.652 40.0507C101.652 40.2823 101.691 40.4408 101.77 40.5261C101.581 40.6968 101.386 40.782 101.185 40.782C100.972 40.7819 100.816 40.727 100.719 40.6173C100.621 40.5076 100.573 40.346 100.573 40.1327C100.573 39.9011 100.597 39.642 100.646 39.3556C100.701 39.063 100.777 38.6851 100.875 38.2219C100.967 37.8379 101.034 37.518 101.076 37.262C101.125 36.9999 101.15 36.7744 101.15 36.5854C101.15 36.0917 100.964 35.8448 100.592 35.8447C100.22 35.8446 99.8363 36.0274 99.44 36.393C99.0498 36.7586 98.7236 37.2644 98.4614 37.9104C98.1991 38.5504 98.0679 39.2635 98.0677 40.0498C98.0676 40.2753 98.1041 40.4338 98.1773 40.5252C98.0005 40.6959 97.8115 40.7811 97.6103 40.7811ZM105.33 40.783C105.001 40.783 104.708 40.6945 104.452 40.5177C104.202 40.3409 104.007 40.0909 103.867 39.7678C103.733 39.4386 103.666 39.0607 103.666 38.6341C103.666 37.9758 103.822 37.3754 104.133 36.833C104.444 36.2845 104.868 35.8549 105.404 35.5442C105.941 35.2274 106.532 35.0691 107.178 35.0692C107.458 35.0693 107.745 35.0938 108.037 35.1426C108.111 35.2706 108.147 35.4139 108.147 35.5723C107.458 35.5722 106.861 35.7031 106.355 35.965C105.849 36.227 105.462 36.5896 105.193 37.0527C104.925 37.5098 104.791 38.0279 104.791 38.6069C104.791 39.0214 104.876 39.3445 105.047 39.5761C105.217 39.8078 105.458 39.9236 105.769 39.9237C106.336 39.9239 106.802 39.5644 107.168 38.8452C107.534 38.12 107.808 37.029 107.992 35.5723C108.059 35.487 108.144 35.4199 108.248 35.3712C108.357 35.3225 108.467 35.2981 108.577 35.2982C108.729 35.2982 108.848 35.3348 108.933 35.408C109.025 35.4811 109.07 35.5817 109.07 35.7097C109.07 35.8499 109.049 36.0175 109.006 36.2125C108.97 36.4076 108.906 36.694 108.814 37.0719C108.668 37.6875 108.555 38.2208 108.475 38.6718C108.396 39.1229 108.356 39.583 108.356 40.0524C108.356 40.2657 108.411 40.4242 108.521 40.5279C108.332 40.6985 108.127 40.7838 107.908 40.7837C107.701 40.7836 107.542 40.7196 107.433 40.5916C107.323 40.4635 107.268 40.2776 107.268 40.0338C107.268 39.8997 107.29 39.7169 107.332 39.4853L107.241 39.4395C107.021 39.8661 106.744 40.1983 106.409 40.4359C106.079 40.6674 105.72 40.7831 105.33 40.783ZM111.374 40.7846C111.166 40.7845 111.011 40.7205 110.907 40.5925C110.804 40.4705 110.752 40.2816 110.752 40.0256C110.752 39.7757 110.835 39.2271 110.999 38.3799C111.17 37.5266 111.353 36.7282 111.548 35.9846L111.146 35.5274C111.311 35.3933 111.469 35.2897 111.622 35.2166C111.78 35.1374 111.924 35.0979 112.052 35.0979C112.222 35.0979 112.347 35.1467 112.426 35.2443C112.506 35.3357 112.545 35.4546 112.545 35.6009C112.545 35.7898 112.512 35.9971 112.444 36.2226C112.383 36.442 112.292 36.701 112.17 36.9996L112.261 37.0454C112.45 36.5944 112.643 36.2226 112.838 35.9301C113.039 35.6376 113.24 35.4212 113.441 35.2811C113.649 35.1349 113.856 35.0618 114.063 35.0618C114.264 35.0619 114.413 35.1076 114.511 35.1991C114.615 35.2844 114.666 35.4186 114.666 35.6014C114.666 35.8026 114.587 35.9641 114.428 36.0859C114.27 36.2078 114.063 36.2687 113.807 36.2686C113.484 36.2685 113.17 36.4513 112.865 36.817C112.56 37.1826 112.313 37.658 112.124 38.2431C111.935 38.8281 111.84 39.4316 111.84 40.0533C111.84 40.2788 111.876 40.4373 111.95 40.5287C111.767 40.6993 111.575 40.7846 111.374 40.7846ZM116.911 40.786C116.265 40.7858 115.759 40.5876 115.393 40.1913C115.028 39.795 114.845 39.2495 114.845 38.5546C114.845 37.8963 114.989 37.3021 115.275 36.7719C115.562 36.2416 115.958 35.8273 116.464 35.5287C116.97 35.2241 117.534 35.0719 118.156 35.072C118.637 35.0721 119.012 35.188 119.28 35.4197C119.555 35.6514 119.692 35.9714 119.692 36.3798C119.691 36.8126 119.536 37.1844 119.225 37.4951C118.914 37.7998 118.46 38.0344 117.862 38.1988C117.271 38.3571 116.555 38.4362 115.714 38.436L115.824 37.924C116.732 37.9303 117.436 37.7964 117.936 37.5222C118.442 37.242 118.695 36.852 118.695 36.3521C118.695 36.1388 118.631 35.9681 118.503 35.8401C118.375 35.7121 118.208 35.648 118 35.648C117.641 35.6479 117.305 35.7819 116.994 36.05C116.684 36.312 116.437 36.6716 116.254 37.1287C116.071 37.5797 115.979 38.0734 115.979 38.6097C115.979 39.0974 116.07 39.4814 116.253 39.7618C116.436 40.0361 116.686 40.1734 117.003 40.1734C117.399 40.1735 117.722 40.0487 117.972 39.7988C118.222 39.549 118.359 39.2168 118.383 38.8024C118.621 38.8024 118.804 38.8482 118.932 38.9396C119.06 39.025 119.124 39.1622 119.124 39.3511C119.124 39.5949 119.026 39.8296 118.831 40.055C118.636 40.2744 118.368 40.4511 118.026 40.5851C117.691 40.7191 117.319 40.7861 116.911 40.786ZM124.295 40.7879C124.112 40.7878 123.957 40.7268 123.829 40.6049C123.707 40.4829 123.646 40.3336 123.646 40.1568C123.646 40.0227 123.676 39.8978 123.737 39.782C123.804 39.6601 123.896 39.5657 124.012 39.4986C124.128 39.4255 124.259 39.389 124.405 39.389C124.594 39.3891 124.749 39.4501 124.871 39.572C124.993 39.6939 125.054 39.8433 125.054 40.02C125.054 40.1541 125.02 40.2821 124.953 40.404C124.886 40.5198 124.792 40.6112 124.67 40.6782C124.554 40.7513 124.429 40.7879 124.295 40.7879ZM130.067 42.7093C129.628 42.7092 129.271 42.6329 128.997 42.4805C128.729 42.3341 128.595 42.1451 128.595 41.9135C128.595 41.7916 128.635 41.6636 128.714 41.5295C128.793 41.4016 128.897 41.2919 129.025 41.2005C129.165 41.4443 129.336 41.6242 129.537 41.74C129.744 41.862 129.994 41.923 130.286 41.9231C130.75 41.9232 131.222 41.7252 131.704 41.3292C132.185 40.9392 132.585 40.2719 132.902 39.3272C133.225 38.3764 133.357 37.1269 133.296 35.5787C133.436 35.4568 133.546 35.3776 133.625 35.3411C133.71 35.2984 133.796 35.2771 133.881 35.2771C134.009 35.2772 134.104 35.3077 134.165 35.3686C134.232 35.4235 134.265 35.5089 134.265 35.6247C134.265 36.9351 134.124 38.1237 133.844 39.1903C133.563 40.2508 133.109 41.1009 132.481 41.7408C131.859 42.3867 131.054 42.7096 130.067 42.7093ZM130.744 40.5243C130.409 40.5243 130.11 40.4388 129.848 40.2681C129.592 40.0913 129.391 39.8444 129.245 39.5274C129.105 39.2043 129.035 38.8325 129.035 38.4119C129.035 37.7841 129.172 37.2173 129.447 36.7114C129.727 36.2056 130.126 35.8065 130.645 35.514C131.169 35.2216 131.781 35.0755 132.482 35.0756C132.799 35.0757 133.086 35.1002 133.342 35.149C133.415 35.2648 133.451 35.4081 133.451 35.5787C132.787 35.5786 132.205 35.6973 131.705 35.9349C131.211 36.1664 130.83 36.4924 130.562 36.9129C130.294 37.3334 130.159 37.8118 130.159 38.3482C130.159 38.7931 130.247 39.1406 130.424 39.3905C130.607 39.6344 130.86 39.7564 131.183 39.7565C131.475 39.7565 131.783 39.6317 132.106 39.3818C132.43 39.1259 132.707 38.6871 132.939 38.0655C133.171 37.4377 133.287 36.6088 133.287 35.5787L133.332 39.2176L132.746 39.2174C132.533 39.6257 132.243 39.9457 131.878 40.1772C131.512 40.4087 131.134 40.5244 130.744 40.5243ZM136.329 40.7909C136.122 40.7908 135.966 40.7268 135.863 40.5988C135.759 40.4769 135.707 40.2879 135.707 40.0319C135.707 39.782 135.79 39.2334 135.955 38.3862C136.126 37.5329 136.309 36.7345 136.504 35.9909L136.102 35.5337C136.266 35.3996 136.425 35.2961 136.577 35.223C136.736 35.1438 136.879 35.1042 137.007 35.1042C137.178 35.1043 137.303 35.1531 137.382 35.2506C137.461 35.342 137.501 35.4609 137.501 35.6072C137.5 35.7962 137.467 36.0034 137.4 36.2289C137.339 36.4483 137.247 36.7073 137.125 37.006L137.217 37.0517C137.406 36.6007 137.598 36.2289 137.793 35.9364C137.994 35.6439 138.195 35.4276 138.397 35.2874C138.604 35.1412 138.811 35.0681 139.018 35.0682C139.22 35.0682 139.369 35.114 139.466 35.2054C139.57 35.2908 139.622 35.4249 139.622 35.6077C139.622 35.8089 139.542 35.9704 139.384 36.0922C139.225 36.2141 139.018 36.275 138.762 36.2749C138.439 36.2749 138.125 36.4576 137.82 36.8233C137.515 37.1889 137.268 37.6643 137.079 38.2494C136.89 38.8345 136.796 39.4379 136.795 40.0596C136.795 40.2851 136.832 40.4436 136.905 40.535C136.722 40.7057 136.53 40.791 136.329 40.7909ZM142.022 40.7923C141.583 40.7922 141.196 40.6946 140.861 40.4995C140.532 40.2983 140.276 40.0178 140.093 39.6581C139.916 39.2924 139.828 38.8687 139.828 38.3872C139.828 37.7411 139.962 37.1682 140.231 36.6685C140.505 36.1687 140.886 35.7787 141.374 35.4985C141.862 35.2182 142.413 35.0782 143.029 35.0783C143.285 35.0784 143.52 35.1028 143.733 35.1516C143.8 35.2492 143.84 35.3924 143.852 35.5814C143.242 35.5812 142.721 35.703 142.288 35.9467C141.855 36.1904 141.526 36.5316 141.3 36.9704C141.075 37.4032 140.962 37.8968 140.962 38.4515C140.962 38.994 141.062 39.4176 141.263 39.7224C141.464 40.0273 141.751 40.1797 142.122 40.1798C142.482 40.1799 142.805 40.0794 143.092 39.8783C143.384 39.6773 143.622 39.3908 143.805 39.0191C143.994 38.6473 144.113 38.2146 144.162 37.7209C143.912 37.5623 143.729 37.3886 143.614 37.1996C143.504 37.0106 143.449 36.7881 143.449 36.5321C143.449 36.3798 143.48 36.2426 143.541 36.1207C143.608 35.9927 143.696 35.8952 143.806 35.8282C143.916 35.7551 144.041 35.7186 144.181 35.7186C144.461 35.7187 144.681 35.8437 144.839 36.0936C144.997 36.3436 145.077 36.691 145.076 37.136C145.076 37.8065 144.939 38.422 144.665 38.9827C144.396 39.5373 144.027 39.9791 143.558 40.3082C143.095 40.6311 142.583 40.7925 142.022 40.7923ZM147.65 40.7938C147.473 40.7937 147.339 40.7571 147.248 40.684C147.157 40.6169 147.09 40.5041 147.047 40.3456C147.01 40.181 146.992 39.9464 146.992 39.6416C146.992 39.3186 146.995 39.0747 147.002 38.9102C147.008 38.2397 147.002 37.7094 146.984 37.3193C146.965 36.9292 146.914 36.5543 146.829 36.1947C146.743 35.8351 146.603 35.5394 146.408 35.3077C146.603 35.1554 146.82 35.0793 147.057 35.0793C147.313 35.0794 147.508 35.1678 147.642 35.3446C147.783 35.5214 147.88 35.811 147.935 36.2133C147.99 36.6095 148.017 37.1733 148.017 37.9047L148.016 39.0567C148.016 39.587 148.013 39.904 148.007 40.0076L148.098 40.0076C148.726 39.2215 149.187 38.4993 149.48 37.8411C149.772 37.1768 149.955 36.6648 150.028 36.3052C150.035 36.293 150.038 36.2839 150.038 36.2778C150.038 36.2656 150.038 36.2565 150.038 36.2504C150.038 36.1894 150.013 36.1163 149.965 36.0309C149.916 35.9395 149.867 35.8541 149.818 35.7749C149.757 35.6956 149.718 35.6316 149.7 35.5829C149.815 35.4976 149.916 35.4397 150.001 35.4092C150.093 35.3727 150.187 35.3544 150.285 35.3544C150.461 35.3545 150.599 35.4124 150.696 35.5283C150.8 35.6441 150.851 35.8056 150.851 36.0129C150.851 36.2872 150.784 36.5889 150.65 36.918C150.516 37.241 150.287 37.695 149.964 38.2801C149.933 38.3288 149.903 38.3806 149.873 38.4355C149.842 38.4903 149.812 38.5482 149.781 38.6092C149.452 39.2003 149.171 39.6513 148.94 39.9621C148.708 40.2729 148.491 40.4892 148.29 40.6111C148.095 40.7329 147.882 40.7938 147.65 40.7938ZM150.814 40.7946C150.594 40.7945 150.424 40.7427 150.302 40.639C150.18 40.5354 150.091 40.3952 150.037 40.2184C149.988 40.0355 149.954 39.8008 149.936 39.5144L149.654 35.592C149.727 35.5128 149.818 35.4549 149.928 35.4183C150.038 35.3757 150.157 35.3544 150.285 35.3544L150.522 35.9031L150.668 40.0082L150.759 40.0083C151.375 38.9966 151.823 38.1708 152.104 37.5309C152.39 36.8849 152.534 36.3973 152.534 36.0682C152.534 35.7695 152.473 35.5165 152.351 35.3092C152.503 35.224 152.631 35.1661 152.735 35.1356C152.845 35.0991 152.961 35.0808 153.082 35.0809C153.241 35.0809 153.363 35.1419 153.448 35.2638C153.54 35.3857 153.585 35.5503 153.585 35.7576C153.585 36.0014 153.515 36.3244 153.375 36.7267C153.24 37.1228 153.033 37.6043 152.753 38.1711C152.472 38.7379 152.118 39.39 151.692 40.1274L151.838 40.4017C151.728 40.5175 151.576 40.6119 151.381 40.685C151.185 40.7581 150.996 40.7946 150.814 40.7946Z" fill="white"/>
</svg>
