<svg width="25" height="28" viewBox="0 0 25 28" fill="none" xmlns="http://www.w3.org/2000/svg">
<path d="M16.7416 20.6667H23.4083L21.535 18.7934C21.027 18.2854 20.7416 17.5964 20.7416 16.8779V12.6667C20.7416 9.18342 18.5155 6.22012 15.4083 5.12189V4.66667C15.4083 3.19391 14.2144 2 12.7416 2C11.2689 2 10.075 3.19391 10.075 4.66667V5.12189C6.96777 6.22012 4.74162 9.18342 4.74162 12.6667V16.8779C4.74162 17.5964 4.45622 18.2854 3.94819 18.7934L2.07495 20.6667H8.74162M16.7416 20.6667V22C16.7416 24.2091 14.9508 26 12.7416 26C10.5325 26 8.74162 24.2091 8.74162 22V20.6667M16.7416 20.6667H8.74162" stroke="#656565" stroke-width="2.66667" stroke-linecap="round" stroke-linejoin="round"/>
</svg>
