<svg width="33" height="32" viewBox="0 0 33 32" fill="none" xmlns="http://www.w3.org/2000/svg">
<path fill-rule="evenodd" clip-rule="evenodd" d="M22.5599 11.6364C22.5599 13.1795 21.947 14.6593 20.8558 15.7505C19.7647 16.8416 18.2848 17.4546 16.7418 17.4546C15.1987 17.4546 13.7188 16.8416 12.6277 15.7505C11.5366 14.6593 10.9236 13.1795 10.9236 11.6364C10.9236 10.0933 11.5366 8.61343 12.6277 7.5223C13.7188 6.43118 15.1987 5.8182 16.7418 5.8182C18.2848 5.8182 19.7647 6.43118 20.8558 7.5223C21.947 8.61343 22.5599 10.0933 22.5599 11.6364ZM19.6509 11.6364C19.6509 12.4079 19.3444 13.1479 18.7988 13.6934C18.2532 14.239 17.5133 14.5455 16.7418 14.5455C15.9702 14.5455 15.2303 14.239 14.6847 13.6934C14.1392 13.1479 13.8327 12.4079 13.8327 11.6364C13.8327 10.8648 14.1392 10.1249 14.6847 9.57934C15.2303 9.03378 15.9702 8.72729 16.7418 8.72729C17.5133 8.72729 18.2532 9.03378 18.7988 9.57934C19.3444 10.1249 19.6509 10.8648 19.6509 11.6364Z" fill="#656565"/>
<path fill-rule="evenodd" clip-rule="evenodd" d="M16.7417 0C7.90534 0 0.741699 7.16364 0.741699 16C0.741699 24.8364 7.90534 32 16.7417 32C25.5781 32 32.7417 24.8364 32.7417 16C32.7417 7.16364 25.5781 0 16.7417 0ZM3.65079 16C3.65079 19.04 4.68788 21.8385 6.42606 24.0611C7.64707 22.4584 9.22192 21.1595 11.0277 20.2658C12.8335 19.3721 14.8214 18.9078 16.8362 18.9091C18.8252 18.9068 20.7883 19.3587 22.5761 20.2304C24.3638 21.102 25.9289 22.3705 27.1519 23.9389C28.4122 22.286 29.2607 20.3567 29.6274 18.3107C29.994 16.2647 29.8681 14.1608 29.2602 12.1731C28.6523 10.1854 27.5798 8.37098 26.1315 6.88005C24.6832 5.38913 22.9006 4.26452 20.9313 3.59929C18.9621 2.93405 16.8627 2.7473 14.807 3.05451C12.7512 3.36171 10.7981 4.15402 9.10936 5.3659C7.4206 6.57777 6.0447 8.17436 5.09549 10.0236C4.14628 11.8728 3.65105 13.9214 3.65079 16ZM16.7417 29.0909C13.7365 29.0958 10.8219 28.0619 8.49152 26.1644C9.42942 24.8213 10.678 23.7247 12.1309 22.9679C13.5838 22.2112 15.1981 21.8168 16.8362 21.8182C18.454 21.8168 20.0487 22.2014 21.4879 22.9401C22.9271 23.6788 24.1692 24.7503 25.1112 26.0655C22.7627 28.0247 19.8001 29.0957 16.7417 29.0909Z" fill="#656565"/>
</svg>
